<svg xmlns="http://www.w3.org/2000/svg" xmlns:xlink="http://www.w3.org/1999/xlink" width="500" zoomAndPan="magnify" viewBox="0 0 375 374.999991" height="500" preserveAspectRatio="xMidYMid meet" version="1.0"><defs><clipPath id="74588dd1e0"><path d="M 262 273 L 355 273 L 355 343.636719 L 262 343.636719 Z M 262 273 " clip-rule="nonzero"/></clipPath><clipPath id="e2d50669ae"><path d="M 129 279 L 249 279 L 249 343.636719 L 129 343.636719 Z M 129 279 " clip-rule="nonzero"/></clipPath><clipPath id="efeddb7f62"><path d="M 150 337 L 244 337 L 244 343.636719 L 150 343.636719 Z M 150 337 " clip-rule="nonzero"/></clipPath><clipPath id="788a85ce05"><path d="M 129 279 L 250 279 L 250 343.636719 L 129 343.636719 Z M 129 279 " clip-rule="nonzero"/></clipPath><clipPath id="0e474b6cb4"><path d="M 213 279 L 298 279 L 298 343.636719 L 213 343.636719 Z M 213 279 " clip-rule="nonzero"/></clipPath><clipPath id="fe1972d5f0"><path d="M 213 279 L 246 279 L 246 343.636719 L 213 343.636719 Z M 213 279 " clip-rule="nonzero"/></clipPath><clipPath id="4826190cc1"><path d="M 213 279 L 298 279 L 298 343.636719 L 213 343.636719 Z M 213 279 " clip-rule="nonzero"/></clipPath></defs><path fill="#dee8ff" d="M 352.859375 186.214844 C 350.53125 169.222656 334.410156 151.867188 310.191406 148.875 C 274.199219 144.429688 242.0625 172.074219 206.027344 167.796875 C 180.648438 164.785156 164.613281 146.875 158.121094 129.589844 C 151.632812 112.304688 151.164062 93.816406 140.554688 77.542969 C 135.148438 69.25 125.554688 61.089844 112.492188 60.289062 C 102.632812 59.6875 93.074219 63.59375 86.816406 68.914062 C 80.5625 74.234375 77.0625 80.828125 73.960938 87.347656 C 55.589844 125.96875 47.398438 166.910156 49.914062 207.539062 C 51.132812 227.210938 54.945312 247.082031 65.945312 265.230469 C 76.945312 283.382812 95.761719 299.792969 121.21875 308.496094 C 147.128906 317.355469 177.480469 317.585938 206.085938 314.8125 C 238.65625 311.652344 271.117188 304.601562 297.378906 290.871094 C 314.628906 281.847656 329.402344 269.902344 337.183594 255.867188 C 356.125 221.695312 354.253906 196.402344 352.859375 186.214844 Z M 352.859375 186.214844 " fill-opacity="0.8" fill-rule="nonzero"/><path fill="#ffffff" d="M 118.851562 186.292969 L 118.851562 264.738281 C 118.851562 270.890625 113.863281 275.875 107.707031 275.875 L 11.632812 275.875 C 5.480469 275.875 0.488281 270.890625 0.488281 264.738281 L 0.488281 186.292969 C 0.488281 180.144531 5.480469 175.160156 11.632812 175.160156 L 107.707031 175.160156 C 113.863281 175.160156 118.851562 180.144531 118.851562 186.292969 Z M 118.851562 186.292969 " fill-opacity="1" fill-rule="nonzero"/><path fill="#3d3936" d="M 122.183594 334.523438 L 76.371094 334.523438 C 64.058594 334.523438 54.042969 324.515625 54.042969 312.214844 L 54.042969 275.582031 C 54.042969 275.378906 54.207031 275.214844 54.40625 275.214844 C 54.609375 275.214844 54.773438 275.378906 54.773438 275.582031 L 54.773438 312.214844 C 54.773438 324.113281 64.460938 333.792969 76.371094 333.792969 L 122.183594 333.792969 C 122.386719 333.792969 122.550781 333.957031 122.550781 334.15625 C 122.550781 334.359375 122.386719 334.523438 122.183594 334.523438 Z M 122.183594 334.523438 " fill-opacity="1" fill-rule="nonzero"/><path fill="#3d3936" d="M 107.707031 276.238281 L 11.632812 276.238281 C 5.289062 276.238281 0.125 271.082031 0.125 264.738281 L 0.125 186.292969 C 0.125 179.953125 5.289062 174.796875 11.632812 174.796875 L 107.707031 174.796875 C 114.054688 174.796875 119.214844 179.953125 119.214844 186.292969 L 119.214844 264.738281 C 119.214844 271.082031 114.054688 276.238281 107.707031 276.238281 Z M 11.632812 175.527344 C 5.691406 175.527344 0.855469 180.355469 0.855469 186.292969 L 0.855469 264.738281 C 0.855469 270.679688 5.691406 275.507812 11.632812 275.507812 L 107.707031 275.507812 C 113.648438 275.507812 118.484375 270.679688 118.484375 264.738281 L 118.484375 186.292969 C 118.484375 180.355469 113.648438 175.527344 107.707031 175.527344 Z M 11.632812 175.527344 " fill-opacity="1" fill-rule="nonzero"/><path fill="#f66b78" d="M 107.023438 165.578125 L 84.691406 198.296875 L 34.316406 187.757812 L 38.691406 226.953125 L 48.15625 226.6875 C 47.902344 226.328125 49.382812 228.433594 43.738281 220.410156 L 85.183594 225.105469 C 89.78125 225.625 94.277344 223.472656 96.753906 219.5625 L 124.191406 176.246094 Z M 107.023438 165.578125 " fill-opacity="1" fill-rule="nonzero"/><path fill="#ffffff" d="M 353.96875 74.785156 L 353.96875 167.066406 C 353.96875 175.96875 346.746094 183.1875 337.835938 183.1875 L 220.410156 183.1875 C 211.5 183.1875 204.277344 175.96875 204.277344 167.066406 L 204.277344 74.785156 C 204.277344 65.882812 211.5 58.667969 220.410156 58.667969 L 337.835938 58.667969 C 346.746094 58.667969 353.96875 65.882812 353.96875 74.785156 Z M 353.96875 74.785156 " fill-opacity="1" fill-rule="nonzero"/><path fill="#3d3936" d="M 337.835938 183.550781 L 220.410156 183.550781 C 211.3125 183.550781 203.910156 176.15625 203.910156 167.066406 L 203.910156 74.785156 C 203.910156 65.699219 211.3125 58.300781 220.410156 58.300781 L 337.835938 58.300781 C 346.933594 58.300781 354.335938 65.699219 354.335938 74.785156 L 354.335938 167.066406 C 354.335938 176.15625 346.933594 183.550781 337.835938 183.550781 Z M 220.410156 59.03125 C 211.714844 59.03125 204.644531 66.101562 204.644531 74.785156 L 204.644531 167.066406 C 204.644531 175.753906 211.714844 182.820312 220.410156 182.820312 L 337.835938 182.820312 C 346.53125 182.820312 353.605469 175.753906 353.605469 167.066406 L 353.605469 74.785156 C 353.605469 66.101562 346.53125 59.03125 337.835938 59.03125 Z M 220.410156 59.03125 " fill-opacity="1" fill-rule="nonzero"/><path fill="#a3a3f5" d="M 353.96875 76.882812 L 353.96875 74.785156 C 353.96875 65.882812 346.746094 58.667969 337.835938 58.667969 L 220.410156 58.667969 C 211.5 58.667969 204.277344 65.882812 204.277344 74.785156 L 204.277344 76.882812 Z M 353.96875 76.882812 " fill-opacity="1" fill-rule="nonzero"/><path fill="#3d3936" d="M 353.96875 77.246094 L 204.277344 77.246094 C 204.074219 77.246094 203.910156 77.082031 203.910156 76.882812 L 203.910156 74.785156 C 203.910156 65.699219 211.3125 58.300781 220.410156 58.300781 L 337.835938 58.300781 C 346.933594 58.300781 354.335938 65.699219 354.335938 74.785156 L 354.335938 76.882812 C 354.335938 77.082031 354.171875 77.246094 353.96875 77.246094 Z M 204.644531 76.515625 L 353.605469 76.515625 L 353.605469 74.785156 C 353.605469 66.101562 346.53125 59.03125 337.835938 59.03125 L 220.410156 59.03125 C 211.714844 59.03125 204.644531 66.101562 204.644531 74.785156 Z M 204.644531 76.515625 " fill-opacity="1" fill-rule="nonzero"/><path fill="#ffa18a" d="M 213.121094 120.707031 L 180.070312 126.960938 L 149.425781 85.859375 C 146.996094 82.597656 142.410156 81.859375 139.078125 84.1875 L 129.6875 90.75 L 168.382812 147.652344 C 171.3125 151.960938 176.445312 154.21875 181.601562 153.476562 L 223.230469 147.476562 Z M 213.121094 120.707031 " fill-opacity="1" fill-rule="nonzero"/><path fill="#ffffff" d="M 189.90625 98.433594 L 189.90625 202.957031 C 189.90625 208.804688 185.164062 213.546875 179.308594 213.546875 L 100.960938 213.546875 C 95.109375 213.546875 90.363281 208.804688 90.363281 202.957031 L 90.363281 98.433594 C 90.363281 92.585938 95.109375 87.84375 100.960938 87.84375 L 179.308594 87.84375 C 185.164062 87.84375 189.90625 92.585938 189.90625 98.433594 Z M 189.90625 98.433594 " fill-opacity="1" fill-rule="nonzero"/><path fill="#3d3936" d="M 179.308594 213.910156 L 100.960938 213.910156 C 94.917969 213.910156 90 208.996094 90 202.957031 L 90 98.433594 C 90 92.394531 94.917969 87.480469 100.960938 87.480469 L 179.308594 87.480469 C 185.355469 87.480469 190.273438 92.394531 190.273438 98.433594 L 190.273438 202.957031 C 190.273438 208.996094 185.355469 213.910156 179.308594 213.910156 Z M 100.960938 88.210938 C 95.320312 88.210938 90.730469 92.796875 90.730469 98.433594 L 90.730469 202.957031 C 90.730469 208.59375 95.320312 213.179688 100.960938 213.179688 L 179.308594 213.179688 C 184.953125 213.179688 189.542969 208.59375 189.542969 202.957031 L 189.542969 98.433594 C 189.542969 92.796875 184.953125 88.210938 179.308594 88.210938 Z M 100.960938 88.210938 " fill-opacity="1" fill-rule="nonzero"/><path fill="#a3a3f5" d="M 134.835938 162.90625 C 123.230469 167.800781 117.792969 181.167969 122.691406 192.765625 C 127.585938 204.359375 140.96875 209.792969 152.570312 204.902344 C 164.179688 200.007812 169.621094 186.636719 164.722656 175.046875 C 159.824219 163.449219 146.445312 158.011719 134.835938 162.90625 Z M 150.214844 199.324219 C 141.695312 202.917969 131.867188 198.925781 128.273438 190.414062 C 124.675781 181.898438 128.671875 172.082031 137.191406 168.488281 C 145.714844 164.898438 155.539062 168.886719 159.136719 177.402344 C 162.730469 185.914062 158.738281 195.734375 150.214844 199.324219 Z M 150.214844 199.324219 " fill-opacity="1" fill-rule="nonzero"/><path fill="#a3a3f5" d="M 154.894531 203.765625 L 167.320312 233.183594 C 167.875 234.496094 167.257812 236.003906 165.949219 236.554688 C 165.289062 236.835938 164.585938 236.816406 163.972656 236.570312 C 163.363281 236.324219 162.84375 235.84375 162.570312 235.1875 L 150.140625 205.769531 C 150.953125 205.527344 151.769531 205.238281 152.570312 204.902344 C 153.375 204.5625 154.148438 204.179688 154.894531 203.765625 Z M 154.894531 203.765625 " fill-opacity="1" fill-rule="nonzero"/><path fill="#3d3936" d="M 122.355469 192.910156 C 117.386719 181.144531 122.921875 167.535156 134.691406 162.570312 C 146.46875 157.605469 160.089844 163.140625 165.058594 174.902344 C 170.039062 186.691406 164.519531 200.261719 152.714844 205.238281 C 140.902344 210.21875 127.304688 204.628906 122.355469 192.910156 Z M 134.976562 163.242188 C 123.574219 168.050781 118.214844 181.230469 123.027344 192.625 C 127.839844 204.015625 141.027344 209.371094 152.429688 204.566406 C 163.855469 199.75 169.210938 186.609375 164.386719 175.1875 C 159.574219 163.792969 146.382812 158.4375 134.976562 163.242188 Z M 127.9375 190.554688 C 124.265625 181.867188 128.355469 171.820312 137.050781 168.152344 C 145.746094 164.484375 155.804688 168.574219 159.472656 177.257812 C 163.140625 185.945312 159.054688 195.996094 150.359375 199.664062 C 141.632812 203.339844 131.589844 199.214844 127.9375 190.554688 Z M 137.335938 168.828125 C 129.011719 172.335938 125.097656 181.957031 128.609375 190.273438 C 132.121094 198.585938 141.75 202.5 150.074219 198.988281 C 158.398438 195.480469 162.3125 185.859375 158.800781 177.542969 C 155.304688 169.269531 145.695312 165.300781 137.335938 168.828125 Z M 150.214844 199.324219 L 150.222656 199.324219 Z M 150.214844 199.324219 " fill-opacity="1" fill-rule="nonzero"/><path fill="#3d3936" d="M 163.835938 236.910156 C 163.105469 236.613281 162.539062 236.054688 162.230469 235.332031 L 149.804688 205.910156 C 149.722656 205.710938 149.828125 205.480469 150.039062 205.417969 C 150.855469 205.175781 151.660156 204.890625 152.429688 204.566406 C 153.199219 204.242188 153.96875 203.863281 154.714844 203.445312 C 154.90625 203.339844 155.144531 203.421875 155.230469 203.621094 L 167.65625 233.042969 C 168.289062 234.539062 167.589844 236.261719 166.089844 236.890625 C 165.375 237.195312 164.570312 237.203125 163.835938 236.910156 Z M 150.636719 206 L 162.90625 235.046875 C 163.132812 235.589844 163.5625 236.011719 164.109375 236.234375 C 164.660156 236.453125 165.265625 236.449219 165.808594 236.21875 C 166.933594 235.746094 167.457031 234.449219 166.984375 233.328125 L 154.714844 204.28125 C 154.058594 204.632812 153.386719 204.953125 152.714844 205.238281 C 152.042969 205.519531 151.34375 205.777344 150.636719 206 Z M 150.636719 206 " fill-opacity="1" fill-rule="nonzero"/><path fill="#3d3936" d="M 208.914062 149.542969 L 223.230469 147.476562 L 213.121094 120.707031 L 203.660156 122.496094 Z M 208.914062 149.542969 " fill-opacity="1" fill-rule="nonzero"/><path fill="#52adff" d="M 240.832031 147.890625 L 246.671875 183.265625 L 326.164062 183.265625 L 316.128906 147.117188 L 336.941406 135.394531 L 326.550781 108.136719 C 321.605469 95.160156 307.535156 88.136719 294.179688 91.980469 L 201.574219 118.621094 L 216.964844 154.445312 Z M 240.832031 147.890625 " fill-opacity="1" fill-rule="nonzero"/><path fill="#ffa18a" d="M 277.929688 96.511719 L 269.980469 111.242188 L 261.066406 101.507812 L 257.875 89.253906 C 258.824219 89.253906 259.789062 89.179688 260.75 89.03125 C 268.378906 87.863281 272.648438 82.800781 273.621094 76.058594 Z M 277.929688 96.511719 " fill-opacity="1" fill-rule="nonzero"/><path fill="#189aea" d="M 239.992188 138.398438 L 231.339844 150.496094 L 240.816406 147.730469 Z M 239.992188 138.398438 " fill-opacity="1" fill-rule="nonzero"/><path fill="#3d3936" d="M 269.710938 111.488281 L 260.796875 101.75 C 260.664062 101.601562 260.671875 101.371094 260.820312 101.234375 C 260.96875 101.101562 261.203125 101.109375 261.339844 101.257812 L 269.902344 110.613281 L 277.605469 96.335938 C 277.699219 96.160156 277.921875 96.089844 278.101562 96.1875 C 278.277344 96.285156 278.34375 96.503906 278.25 96.683594 L 270.300781 111.414062 C 270.183594 111.636719 269.878906 111.671875 269.710938 111.488281 Z M 269.710938 111.488281 " fill-opacity="1" fill-rule="nonzero"/><path fill="#ffa18a" d="M 135.148438 85.316406 C 133.851562 87.09375 134.316406 89.492188 134.773438 91.976562 C 134.902344 92.6875 135.507812 93.285156 136.308594 93.34375 C 136.90625 93.386719 137.433594 93.109375 137.765625 92.6875 C 137.769531 92.734375 137.777344 92.789062 137.789062 92.839844 C 137.882812 93.34375 138.199219 93.757812 138.621094 94 C 139.242188 94.347656 140.058594 94.289062 140.617188 93.746094 C 140.65625 94.007812 140.695312 94.261719 140.742188 94.507812 C 140.886719 95.261719 141.523438 95.824219 142.285156 95.878906 C 143.214844 95.949219 143.980469 95.257812 144.078125 94.382812 C 144.347656 94.78125 144.816406 95.066406 145.34375 95.105469 C 146.453125 95.1875 147.316406 94.195312 147.113281 93.097656 C 146.425781 89.292969 147.027344 87.433594 147.027344 87.433594 L 149.261719 88.089844 C 149.890625 88.277344 150.566406 88.023438 150.917969 87.46875 C 151.375 86.753906 151.132812 85.800781 150.386719 85.394531 C 150.386719 85.394531 147.503906 83.691406 146.480469 83.25 C 142.964844 81.742188 137.6875 81.835938 135.148438 85.316406 Z M 135.148438 85.316406 " fill-opacity="1" fill-rule="nonzero"/><path fill="#3d3936" d="M 149.160156 88.441406 L 146.921875 87.785156 C 146.730469 87.726562 146.617188 87.523438 146.675781 87.332031 C 146.730469 87.136719 146.933594 87.027344 147.128906 87.082031 L 149.367188 87.742188 C 149.839844 87.878906 150.347656 87.6875 150.609375 87.273438 C 150.71875 87.105469 150.945312 87.054688 151.117188 87.164062 C 151.285156 87.269531 151.335938 87.496094 151.226562 87.667969 C 150.789062 88.355469 149.9375 88.671875 149.160156 88.441406 Z M 149.160156 88.441406 " fill-opacity="1" fill-rule="nonzero"/><path fill="#3d3936" d="M 240.832031 148.257812 C 240.644531 148.257812 240.484375 148.113281 240.464844 147.921875 L 239.378906 135.570312 C 239.359375 135.371094 239.507812 135.191406 239.710938 135.175781 C 239.914062 135.15625 240.085938 135.304688 240.105469 135.507812 L 241.195312 147.859375 C 241.210938 148.058594 241.0625 148.238281 240.863281 148.253906 C 240.851562 148.253906 240.839844 148.257812 240.832031 148.257812 Z M 240.832031 148.257812 " fill-opacity="1" fill-rule="nonzero"/><path fill="#ffffff" d="M 144.078125 94.382812 C 144.078125 94.382812 143.644531 90.675781 143.832031 88.625 " fill-opacity="1" fill-rule="nonzero"/><path fill="#000000" d="M 144.078125 94.746094 C 143.894531 94.746094 143.738281 94.609375 143.714844 94.425781 C 143.699219 94.273438 143.28125 90.65625 143.46875 88.59375 C 143.484375 88.394531 143.660156 88.242188 143.863281 88.261719 C 144.066406 88.28125 144.214844 88.457031 144.195312 88.660156 C 144.015625 90.644531 144.4375 94.304688 144.441406 94.339844 C 144.46875 94.554688 144.296875 94.746094 144.078125 94.746094 Z M 144.078125 94.746094 " fill-opacity="1" fill-rule="nonzero"/><path fill="#ffffff" d="M 140.597656 93.980469 C 140.597656 93.980469 140.5 92.015625 140.570312 90.160156 " fill-opacity="1" fill-rule="nonzero"/><path fill="#000000" d="M 140.597656 94.34375 C 140.402344 94.34375 140.242188 94.195312 140.234375 94 C 140.230469 93.980469 140.132812 91.996094 140.203125 90.148438 C 140.210938 89.945312 140.382812 89.777344 140.582031 89.796875 C 140.785156 89.804688 140.941406 89.972656 140.933594 90.175781 C 140.867188 91.992188 140.960938 93.941406 140.964844 93.960938 C 140.972656 94.164062 140.816406 94.335938 140.617188 94.34375 C 140.609375 94.34375 140.601562 94.34375 140.597656 94.34375 Z M 140.597656 94.34375 " fill-opacity="1" fill-rule="nonzero"/><path fill="#ffffff" d="M 137.808594 92.816406 C 137.808594 92.816406 137.710938 90.851562 137.78125 88.996094 " fill-opacity="1" fill-rule="nonzero"/><path fill="#000000" d="M 137.445312 92.835938 C 137.445312 92.8125 137.347656 90.832031 137.414062 88.984375 C 137.421875 88.78125 137.597656 88.621094 137.792969 88.632812 C 137.996094 88.640625 138.152344 88.808594 138.144531 89.011719 C 138.078125 90.828125 138.175781 92.777344 138.175781 92.796875 C 138.199219 93.28125 137.46875 93.320312 137.445312 92.835938 Z M 137.445312 92.835938 " fill-opacity="1" fill-rule="nonzero"/><path fill="#ffa18a" d="M 273.527344 68.972656 C 275.082031 79.078125 270.867188 87.480469 260.75 89.035156 C 250.636719 90.585938 241.171875 83.648438 239.617188 73.546875 C 238.0625 63.4375 245.003906 53.980469 255.117188 52.425781 C 265.238281 50.871094 271.972656 58.863281 273.527344 68.972656 Z M 273.527344 68.972656 " fill-opacity="1" fill-rule="nonzero"/><path fill="#3d3936" d="M 267.972656 58.25 C 267.972656 58.25 262.382812 69.15625 273.386719 68.160156 L 273.105469 78.410156 C 273.105469 78.410156 277.257812 77.421875 279.5 73.714844 C 282.617188 68.566406 288.539062 47.953125 273.839844 48.417969 C 273.839844 48.417969 277.007812 33.144531 250.878906 38.117188 C 233.34375 41.453125 247.328125 51.734375 247.328125 51.734375 C 247.328125 51.734375 242.109375 48.773438 236.128906 50.652344 C 229.308594 52.796875 226.515625 64.699219 239.488281 68.898438 C 239.488281 68.898438 241.933594 60.511719 251.953125 55.667969 C 251.476562 57.480469 252.011719 59.792969 252.921875 62.285156 C 256.957031 58.597656 261.976562 57.253906 267.972656 58.25 Z M 267.972656 58.25 " fill-opacity="1" fill-rule="nonzero"/><path fill="#ffa18a" d="M 276.722656 69.710938 C 276.722656 72.242188 274.667969 74.292969 272.140625 74.292969 C 269.609375 74.292969 267.554688 72.242188 267.554688 69.710938 C 267.554688 67.183594 269.609375 65.136719 272.140625 65.136719 C 274.667969 65.136719 276.722656 67.183594 276.722656 69.710938 Z M 276.722656 69.710938 " fill-opacity="1" fill-rule="nonzero"/><path fill="#3d3936" d="M 272.730469 74.269531 C 272.6875 74.070312 272.816406 73.878906 273.011719 73.835938 C 274.949219 73.429688 276.355469 71.695312 276.355469 69.710938 C 276.355469 67.390625 274.464844 65.5 272.140625 65.5 C 270.648438 65.5 269.253906 66.300781 268.5 67.585938 C 268.394531 67.757812 268.171875 67.816406 268 67.714844 C 267.824219 67.613281 267.765625 67.386719 267.867188 67.214844 C 268.753906 65.707031 270.390625 64.769531 272.140625 64.769531 C 274.867188 64.769531 277.085938 66.988281 277.085938 69.710938 C 277.085938 72.039062 275.4375 74.074219 273.164062 74.550781 C 272.96875 74.59375 272.773438 74.46875 272.730469 74.269531 Z M 272.730469 74.269531 " fill-opacity="1" fill-rule="nonzero"/><path fill="#ffffff" d="M 241.339844 71.796875 C 241.414062 71.816406 243.289062 73.226562 245.28125 72.820312 C 247.269531 72.414062 248.511719 70.332031 248.511719 70.332031 C 248.441406 70.316406 246.097656 68.59375 244.019531 69.46875 C 242.359375 70.085938 241.339844 71.796875 241.339844 71.796875 Z M 241.339844 71.796875 " fill-opacity="1" fill-rule="nonzero"/><path fill="#3d3936" d="M 241.339844 71.796875 C 241.339844 71.796875 242.871094 72.914062 244.597656 72.890625 C 244.925781 71.710938 244.703125 70.449219 244.019531 69.46875 C 242.359375 70.085938 241.339844 71.796875 241.339844 71.796875 Z M 241.339844 71.796875 " fill-opacity="1" fill-rule="nonzero"/><path fill="#ffffff" d="M 253.011719 70.597656 C 253.082031 70.621094 255.355469 72.316406 257.753906 71.828125 C 260.140625 71.339844 261.640625 68.835938 261.640625 68.835938 C 261.640625 68.835938 259.277344 67.113281 256.886719 67.597656 C 256.660156 67.644531 256.4375 67.710938 256.230469 67.796875 C 254.238281 68.539062 253.011719 70.597656 253.011719 70.597656 Z M 253.011719 70.597656 " fill-opacity="1" fill-rule="nonzero"/><path fill="#3d3936" d="M 253.011719 70.597656 C 253.011719 70.597656 254.851562 71.941406 256.929688 71.914062 C 257.324219 70.496094 257.058594 68.976562 256.230469 67.796875 C 254.238281 68.539062 253.011719 70.597656 253.011719 70.597656 Z M 253.011719 70.597656 " fill-opacity="1" fill-rule="nonzero"/><path fill="#3d3936" d="M 254.917969 65.324219 C 254.769531 65.1875 254.761719 64.957031 254.898438 64.808594 C 255.035156 64.660156 255.265625 64.648438 255.414062 64.785156 C 255.492188 64.855469 257.207031 66.304688 260.683594 64.25 C 260.859375 64.148438 261.082031 64.203125 261.183594 64.378906 C 261.289062 64.550781 261.230469 64.777344 261.058594 64.878906 C 259.203125 65.972656 256.433594 66.714844 254.917969 65.324219 Z M 254.917969 65.324219 " fill-opacity="1" fill-rule="nonzero"/><path fill="#3d3936" d="M 241.828125 66.46875 C 241.679688 66.332031 241.667969 66.097656 241.804688 65.949219 C 241.941406 65.800781 242.171875 65.792969 242.320312 65.925781 C 242.402344 66 244.113281 67.449219 247.59375 65.394531 C 247.765625 65.289062 247.992188 65.347656 248.09375 65.519531 C 248.195312 65.695312 248.140625 65.917969 247.964844 66.023438 C 246.113281 67.117188 243.34375 67.855469 241.828125 66.46875 Z M 241.828125 66.46875 " fill-opacity="1" fill-rule="nonzero"/><path fill="#3d3936" d="M 255.433594 83.460938 C 254.128906 85.347656 251.804688 85.410156 250.015625 84.117188 C 248.140625 82.777344 247.109375 80.375 247.109375 80.375 C 247.109375 80.375 251.265625 82.160156 256.617188 78.945312 C 256.617188 78.945312 256.664062 81.667969 255.433594 83.460938 Z M 255.433594 83.460938 " fill-opacity="1" fill-rule="nonzero"/><path fill="#ffffff" d="M 254.617188 83.199219 C 253.707031 84.511719 252.082031 84.558594 250.832031 83.652344 C 251.742188 82.34375 253.363281 82.292969 254.617188 83.199219 Z M 254.617188 83.199219 " fill-opacity="1" fill-rule="nonzero"/><path fill="#3d3936" d="M 249.296875 75.960938 C 249.109375 75.882812 249.019531 75.671875 249.09375 75.484375 L 250.257812 72.566406 C 250.367188 72.292969 250.734375 72.257812 250.898438 72.496094 L 252.535156 74.875 C 252.648438 75.039062 252.609375 75.269531 252.441406 75.382812 C 252.277344 75.496094 252.046875 75.453125 251.933594 75.289062 L 250.683594 73.472656 L 249.773438 75.757812 C 249.695312 75.945312 249.480469 76.035156 249.296875 75.960938 Z M 249.296875 75.960938 " fill-opacity="1" fill-rule="nonzero"/><path fill="#3d3936" d="M 270.496094 70.222656 C 270.382812 68.339844 272.019531 67.613281 272.898438 67.488281 C 273.101562 67.460938 273.28125 67.601562 273.3125 67.800781 C 273.339844 68 273.199219 68.183594 273 68.210938 C 272.925781 68.222656 271.125 68.503906 271.226562 70.179688 C 271.238281 70.382812 271.085938 70.554688 270.882812 70.566406 C 270.671875 70.578125 270.507812 70.417969 270.496094 70.222656 Z M 270.496094 70.222656 " fill-opacity="1" fill-rule="nonzero"/><path fill="#3d3936" d="M 270.542969 70.039062 C 270.441406 69.867188 270.5 69.640625 270.671875 69.539062 C 270.75 69.496094 272.589844 68.4375 273.605469 69.457031 C 273.746094 69.597656 273.746094 69.832031 273.601562 69.972656 C 273.460938 70.113281 273.230469 70.113281 273.085938 69.972656 C 272.480469 69.363281 271.058594 70.164062 271.042969 70.171875 C 270.867188 70.273438 270.644531 70.214844 270.542969 70.039062 Z M 270.542969 70.039062 " fill-opacity="1" fill-rule="nonzero"/><path fill="#3d3936" d="M 257.875 89.253906 C 257.875 89.253906 264.761719 89.710938 269.257812 85.0625 C 269.257812 85.0625 267.875 92.25 259.371094 95 Z M 257.875 89.253906 " fill-opacity="1" fill-rule="nonzero"/><path fill="#ffffff" d="M 293.058594 143.546875 C 293.058594 151.894531 284.457031 158.652344 273.835938 158.652344 C 263.226562 158.652344 254.621094 151.894531 254.621094 143.546875 C 254.621094 135.207031 263.226562 128.441406 273.835938 128.441406 C 284.457031 128.441406 293.058594 135.207031 293.058594 143.546875 Z M 293.058594 143.546875 " fill-opacity="1" fill-rule="nonzero"/><path fill="#3d3936" d="M 307.328125 175.195312 L 245.277344 175.195312 C 245.078125 175.195312 244.914062 175.03125 244.914062 174.832031 C 244.914062 174.628906 245.078125 174.464844 245.277344 174.464844 L 307.328125 174.464844 C 307.527344 174.464844 307.691406 174.628906 307.691406 174.832031 C 307.691406 175.03125 307.527344 175.195312 307.328125 175.195312 Z M 307.328125 175.195312 " fill-opacity="1" fill-rule="nonzero"/><path fill="#ffa18a" d="M 165.355469 215.109375 C 166.285156 214.5 167.492188 214.742188 168.089844 215.523438 C 168.8125 216.417969 168.652344 217.742188 167.71875 218.425781 L 165.46875 219.902344 C 166.292969 219.324219 167.480469 219.492188 168.21875 220.378906 C 168.945312 221.269531 168.769531 222.601562 167.839844 223.273438 L 165.839844 224.769531 C 166.769531 224.15625 167.890625 224.410156 168.542969 225.226562 C 169.269531 226.121094 169.09375 227.453125 168.164062 228.125 L 166.898438 229.0625 C 168.195312 229.621094 168.519531 231.546875 167.226562 232.511719 L 157.261719 239.152344 L 154.332031 241.101562 L 145.8125 225.941406 L 147.992188 224.84375 L 153.519531 213.546875 L 156.429688 220.9375 Z M 165.355469 215.109375 " fill-opacity="1" fill-rule="nonzero"/><path fill="#3d3936" d="M 157.261719 239.152344 L 154.332031 241.101562 L 145.8125 225.941406 L 146.644531 225.519531 Z M 157.261719 239.152344 " fill-opacity="1" fill-rule="nonzero"/><path fill="#3d3936" d="M 162.773438 221.546875 C 162.667969 221.375 162.714844 221.148438 162.886719 221.042969 L 165.558594 219.339844 C 165.726562 219.230469 165.953125 219.277344 166.0625 219.449219 C 166.171875 219.621094 166.121094 219.84375 165.949219 219.953125 L 163.28125 221.65625 C 163.109375 221.765625 162.882812 221.714844 162.773438 221.546875 Z M 162.773438 221.546875 " fill-opacity="1" fill-rule="nonzero"/><path fill="#3d3936" d="M 163.269531 226.421875 C 163.160156 226.253906 163.210938 226.027344 163.382812 225.917969 L 166.050781 224.214844 C 166.222656 224.105469 166.449219 224.15625 166.558594 224.328125 C 166.664062 224.496094 166.617188 224.722656 166.445312 224.832031 L 163.773438 226.535156 C 163.601562 226.644531 163.378906 226.59375 163.269531 226.421875 Z M 163.269531 226.421875 " fill-opacity="1" fill-rule="nonzero"/><path fill="#3d3936" d="M 163.96875 230.921875 C 163.859375 230.75 163.910156 230.523438 164.082031 230.417969 L 166.753906 228.714844 C 166.921875 228.605469 167.148438 228.65625 167.257812 228.824219 C 167.367188 228.996094 167.316406 229.21875 167.144531 229.328125 L 164.472656 231.03125 C 164.300781 231.140625 164.078125 231.089844 163.96875 230.921875 Z M 163.96875 230.921875 " fill-opacity="1" fill-rule="nonzero"/><path fill="#f66b78" d="M 144.164062 223.007812 L 109.910156 240.355469 L 58.109375 195.078125 C 54.691406 192.144531 50.628906 190.046875 46.261719 188.976562 L 38.816406 187.15625 C 29.308594 184.820312 17.414062 190.363281 13.328125 199.261719 C 10.304688 205.835938 8.722656 251.542969 8.089844 275.582031 L 69.945312 275.582031 L 67.734375 248.105469 L 67.714844 247.851562 L 95.839844 267.046875 C 100.089844 270.050781 105.6875 270.367188 110.253906 267.851562 L 155.292969 242.828125 Z M 144.164062 223.007812 " fill-opacity="1" fill-rule="nonzero"/><path fill="#3d3936" d="M 91.144531 224.4375 L 57.871094 195.351562 C 57.71875 195.21875 57.703125 194.988281 57.835938 194.835938 C 57.96875 194.683594 58.199219 194.667969 58.351562 194.800781 L 91.625 223.886719 C 91.777344 224.019531 91.792969 224.25 91.660156 224.402344 C 91.523438 224.554688 91.292969 224.570312 91.144531 224.4375 Z M 91.144531 224.4375 " fill-opacity="1" fill-rule="nonzero"/><path fill="#ffa18a" d="M 42.425781 184.96875 L 35.359375 184.96875 L 36.554688 176.691406 L 37.1875 172.273438 C 59.027344 166.429688 51.496094 168.445312 53.125 168.011719 L 50.839844 180.257812 L 50.761719 180.691406 L 49.472656 187.648438 L 42.425781 187.648438 Z M 42.425781 184.96875 " fill-opacity="1" fill-rule="nonzero"/><path fill="#3d3936" d="M 12.027344 203.210938 C 11.828125 203.164062 11.710938 202.964844 11.761719 202.769531 C 12.125 201.328125 12.539062 200.097656 12.992188 199.109375 C 16.027344 192.507812 23.488281 187.410156 31.554688 186.421875 C 31.757812 186.394531 31.9375 186.539062 31.960938 186.742188 C 31.988281 186.941406 31.84375 187.121094 31.644531 187.148438 C 23.820312 188.105469 16.589844 193.035156 13.660156 199.414062 C 13.222656 200.359375 12.824219 201.550781 12.46875 202.949219 C 12.417969 203.144531 12.222656 203.261719 12.027344 203.210938 Z M 12.027344 203.210938 " fill-opacity="1" fill-rule="nonzero"/><path fill="#d33d57" d="M 69.039062 264.300781 L 57.695312 239.875 L 67.734375 248.105469 Z M 69.039062 264.300781 " fill-opacity="1" fill-rule="nonzero"/><path fill="#3d3936" d="M 67.484375 248.128906 L 54.175781 237.242188 C 54.019531 237.113281 53.996094 236.882812 54.125 236.726562 C 54.253906 236.570312 54.484375 236.546875 54.640625 236.675781 L 67.945312 247.5625 C 68.101562 247.691406 68.125 247.921875 67.996094 248.078125 C 67.871094 248.230469 67.640625 248.257812 67.484375 248.128906 Z M 67.484375 248.128906 " fill-opacity="1" fill-rule="nonzero"/><path fill="#3d3936" d="M 44.710938 218.765625 C 38.933594 209.289062 48.160156 195.253906 48.554688 194.660156 C 48.667969 194.492188 48.894531 194.449219 49.0625 194.558594 C 49.230469 194.671875 49.277344 194.898438 49.164062 195.066406 C 49.070312 195.207031 39.800781 209.308594 45.335938 218.382812 C 45.441406 218.554688 45.386719 218.78125 45.210938 218.886719 C 45.039062 218.992188 44.816406 218.933594 44.710938 218.765625 Z M 44.710938 218.765625 " fill-opacity="1" fill-rule="nonzero"/><path fill="#3d3936" d="M 112.578125 245.140625 L 109.601562 240.554688 C 109.492188 240.386719 109.542969 240.160156 109.710938 240.050781 C 109.878906 239.941406 110.105469 239.988281 110.214844 240.160156 L 113.191406 244.742188 C 113.300781 244.910156 113.25 245.136719 113.082031 245.246094 C 112.914062 245.355469 112.6875 245.308594 112.578125 245.140625 Z M 112.578125 245.140625 " fill-opacity="1" fill-rule="nonzero"/><path fill="#3d3936" d="M 107.210938 245.339844 C 107.027344 245.253906 106.949219 245.039062 107.03125 244.855469 L 108.308594 242.089844 C 108.394531 241.90625 108.609375 241.824219 108.792969 241.910156 C 108.976562 241.996094 109.058594 242.210938 108.972656 242.394531 L 107.695312 245.160156 C 107.613281 245.34375 107.394531 245.421875 107.210938 245.339844 Z M 107.210938 245.339844 " fill-opacity="1" fill-rule="nonzero"/><path fill="#000000" d="M 39.660156 173.675781 C 42.191406 177.558594 46.417969 180.160156 50.839844 180.257812 L 53.125 168.011719 L 40.175781 169.378906 C 40.164062 169.453125 39.625 173.964844 39.660156 173.675781 Z M 39.660156 173.675781 " fill-opacity="1" fill-rule="nonzero"/><path fill="#ffa18a" d="M 64.441406 159.636719 C 64.441406 169.796875 56.195312 178.03125 46.027344 178.03125 C 42.625 178.03125 39.4375 177.109375 36.703125 175.5 C 31.261719 172.304688 27.613281 166.398438 27.613281 159.636719 C 27.613281 149.476562 35.859375 141.242188 46.027344 141.242188 C 52.957031 141.242188 58.992188 145.066406 62.136719 150.722656 C 63.605469 153.363281 64.441406 156.402344 64.441406 159.636719 Z M 64.441406 159.636719 " fill-opacity="1" fill-rule="nonzero"/><path fill="#000000" d="M 65.242188 147.972656 C 63.308594 153.292969 61.910156 153.320312 43.578125 154.625 C 43.578125 154.625 44.933594 160.535156 39.398438 160.652344 C 33.863281 160.769531 29.378906 170.691406 29.378906 170.691406 C 29.378906 170.691406 17.792969 142.535156 32.050781 146.253906 C 32.050781 146.253906 30.53125 137.414062 47.980469 135.292969 C 63.597656 133.394531 67 143.144531 65.242188 147.972656 Z M 65.242188 147.972656 " fill-opacity="1" fill-rule="nonzero"/><path fill="#000000" d="M 42.644531 166.941406 C 42.644531 170.960938 39.378906 174.21875 35.359375 174.21875 C 31.332031 174.21875 28.074219 170.960938 28.074219 166.941406 C 28.074219 162.925781 31.332031 159.660156 35.359375 159.660156 C 39.378906 159.660156 42.644531 162.925781 42.644531 166.941406 Z M 42.644531 166.941406 " fill-opacity="1" fill-rule="nonzero"/><path fill="#ffa18a" d="M 64.191406 156.621094 C 64.191406 156.621094 66.257812 161.601562 67.90625 162.960938 C 69.554688 164.320312 66.382812 165.476562 62.136719 163.292969 " fill-opacity="1" fill-rule="nonzero"/><path fill="#ffa18a" d="M 43.578125 163.769531 C 43.578125 166.039062 41.734375 167.882812 39.460938 167.882812 C 37.1875 167.882812 35.347656 166.039062 35.347656 163.769531 C 35.347656 161.5 37.1875 159.660156 39.460938 159.660156 C 41.734375 159.660156 43.578125 161.5 43.578125 163.769531 Z M 43.578125 163.769531 " fill-opacity="1" fill-rule="nonzero"/><path fill="#ffffff" d="M 61.605469 158.945312 C 61.605469 158.945312 59.8125 160.238281 57.800781 160.199219 C 54.996094 160.171875 53.328125 157.238281 53.257812 157.1875 C 53.257812 157.1875 55.554688 155.53125 57.867188 156.019531 C 58.085938 156.066406 58.300781 156.128906 58.503906 156.214844 C 60.429688 156.945312 61.605469 158.945312 61.605469 158.945312 Z M 61.605469 158.945312 " fill-opacity="1" fill-rule="nonzero"/><path fill="#3d3936" d="M 61.605469 158.945312 C 61.605469 158.945312 59.8125 160.238281 57.800781 160.199219 C 57.425781 158.820312 57.695312 157.355469 58.503906 156.214844 C 60.429688 156.945312 61.605469 158.945312 61.605469 158.945312 Z M 61.605469 158.945312 " fill-opacity="1" fill-rule="nonzero"/><path fill="#3d3936" d="M 41.195312 164.214844 C 39.671875 162.09375 37.625 162.679688 37.539062 162.707031 C 37.347656 162.761719 37.144531 162.65625 37.085938 162.460938 C 37.027344 162.269531 37.132812 162.066406 37.324219 162.007812 C 37.351562 162 39.953125 161.230469 41.789062 163.792969 C 41.90625 163.957031 41.867188 164.183594 41.703125 164.300781 C 41.542969 164.417969 41.3125 164.382812 41.195312 164.214844 Z M 41.195312 164.214844 " fill-opacity="1" fill-rule="nonzero"/><path fill="#3d3936" d="M 38.378906 164.902344 C 38.1875 164.839844 38.082031 164.636719 38.140625 164.445312 C 38.367188 163.738281 39.277344 162.539062 41.097656 163.0625 C 41.292969 163.117188 41.402344 163.320312 41.347656 163.515625 C 41.292969 163.707031 41.089844 163.820312 40.894531 163.765625 C 39.292969 163.304688 38.855469 164.609375 38.839844 164.667969 C 38.777344 164.863281 38.566406 164.964844 38.378906 164.902344 Z M 38.378906 164.902344 " fill-opacity="1" fill-rule="nonzero"/><path fill="#3d3936" d="M 57.203125 168.296875 C 57.046875 168.171875 57.019531 167.941406 57.144531 167.785156 C 57.269531 167.628906 57.5 167.601562 57.660156 167.726562 C 57.734375 167.785156 59.515625 169.164062 61.757812 168.128906 C 61.941406 168.042969 62.15625 168.125 62.242188 168.304688 C 62.328125 168.488281 62.246094 168.707031 62.0625 168.789062 C 60.308594 169.601562 58.378906 169.234375 57.203125 168.296875 Z M 57.203125 168.296875 " fill-opacity="1" fill-rule="nonzero"/><path fill="#f66b78" d="M 32.476562 186.796875 L 33.964844 182.984375 C 34.746094 180.980469 37.089844 180.085938 39.007812 181.0625 L 50.492188 186.882812 C 52.257812 187.78125 53.101562 189.828125 52.484375 191.707031 Z M 32.476562 186.796875 " fill-opacity="1" fill-rule="nonzero"/><path fill="#3d3936" d="M 48.984375 156.222656 C 48.820312 156.101562 48.789062 155.875 48.910156 155.710938 C 50.789062 153.1875 54.667969 152.964844 54.832031 152.957031 C 55.027344 152.949219 55.207031 153.101562 55.214844 153.304688 C 55.226562 153.503906 55.070312 153.675781 54.871094 153.6875 C 54.832031 153.6875 51.167969 153.902344 49.496094 156.148438 C 49.375 156.308594 49.144531 156.34375 48.984375 156.222656 Z M 48.984375 156.222656 " fill-opacity="1" fill-rule="nonzero"/><path fill="#3d3936" d="M 88.433594 201.523438 L 84.476562 198.589844 C 84.3125 198.472656 84.28125 198.242188 84.398438 198.082031 C 84.519531 197.917969 84.75 197.886719 84.910156 198.003906 L 88.867188 200.9375 C 89.03125 201.058594 89.0625 201.285156 88.945312 201.449219 C 88.824219 201.609375 88.59375 201.644531 88.433594 201.523438 Z M 88.433594 201.523438 " fill-opacity="1" fill-rule="nonzero"/><path fill="#3d3936" d="M 85.097656 203.835938 L 84.503906 201.03125 C 84.464844 200.835938 84.589844 200.640625 84.789062 200.597656 C 84.988281 200.558594 85.179688 200.683594 85.222656 200.878906 L 85.8125 203.683594 C 85.855469 203.878906 85.730469 204.074219 85.53125 204.117188 C 85.335938 204.15625 85.140625 204.03125 85.097656 203.835938 Z M 85.097656 203.835938 " fill-opacity="1" fill-rule="nonzero"/><path fill="#ffffff" d="M 343.585938 68.5 C 343.585938 70.15625 342.242188 71.496094 340.585938 71.496094 C 338.933594 71.496094 337.585938 70.15625 337.585938 68.5 C 337.585938 66.851562 338.933594 65.507812 340.585938 65.507812 C 342.242188 65.507812 343.585938 66.851562 343.585938 68.5 Z M 343.585938 68.5 " fill-opacity="1" fill-rule="nonzero"/><path fill="#ffffff" d="M 333.9375 68.5 C 333.9375 70.15625 332.589844 71.496094 330.933594 71.496094 C 329.28125 71.496094 327.9375 70.15625 327.9375 68.5 C 327.9375 66.851562 329.28125 65.507812 330.933594 65.507812 C 332.589844 65.507812 333.9375 66.851562 333.9375 68.5 Z M 333.9375 68.5 " fill-opacity="1" fill-rule="nonzero"/><path fill="#ffffff" d="M 324.285156 68.5 C 324.285156 70.15625 322.941406 71.496094 321.285156 71.496094 C 319.632812 71.496094 318.285156 70.15625 318.285156 68.5 C 318.285156 66.851562 319.632812 65.507812 321.285156 65.507812 C 322.941406 65.507812 324.285156 66.851562 324.285156 68.5 Z M 324.285156 68.5 " fill-opacity="1" fill-rule="nonzero"/><path fill="#3d3936" d="M 302.484375 230.738281 L 300.964844 230.738281 C 300.761719 230.738281 300.601562 230.574219 300.601562 230.371094 C 300.601562 230.171875 300.761719 230.007812 300.964844 230.007812 L 302.484375 230.007812 C 302.6875 230.007812 302.847656 230.171875 302.847656 230.371094 C 302.847656 230.574219 302.6875 230.738281 302.484375 230.738281 Z M 302.484375 230.738281 " fill-opacity="1" fill-rule="nonzero"/><path fill="#3d3936" d="M 335.203125 231.746094 C 335.597656 231.839844 335.976562 231.96875 336.34375 232.136719 C 336.714844 232.304688 337.0625 232.507812 337.390625 232.742188 C 337.71875 232.980469 338.019531 233.246094 338.296875 233.542969 C 338.574219 233.835938 338.816406 234.15625 339.03125 234.5 C 339.242188 234.84375 339.417969 235.207031 339.5625 235.585938 C 339.703125 235.964844 339.804688 236.351562 339.871094 236.753906 C 339.933594 237.152344 339.960938 237.554688 339.945312 237.957031 C 339.933594 238.363281 339.878906 238.761719 339.785156 239.152344 C 339.691406 239.546875 339.5625 239.929688 339.394531 240.296875 C 339.226562 240.664062 339.023438 241.011719 338.785156 241.339844 C 338.550781 241.667969 338.285156 241.96875 337.988281 242.246094 C 337.691406 242.519531 337.371094 242.765625 337.027344 242.976562 C 336.683594 243.191406 336.320312 243.367188 335.941406 243.507812 C 335.5625 243.648438 335.171875 243.753906 334.773438 243.816406 C 334.375 243.882812 333.972656 243.90625 333.566406 243.894531 C 333.164062 243.878906 332.765625 243.824219 332.371094 243.730469 C 331.976562 243.640625 331.59375 243.507812 331.226562 243.339844 C 330.859375 243.171875 330.511719 242.972656 330.183594 242.734375 C 329.855469 242.5 329.550781 242.230469 329.277344 241.9375 C 329 241.640625 328.757812 241.320312 328.542969 240.976562 C 328.332031 240.632812 328.152344 240.269531 328.011719 239.890625 C 327.871094 239.511719 327.765625 239.125 327.703125 238.726562 C 327.636719 238.328125 327.613281 237.925781 327.625 237.519531 C 327.640625 237.117188 327.695312 236.71875 327.789062 236.324219 C 327.878906 235.929688 328.011719 235.550781 328.179688 235.183594 C 328.347656 234.8125 328.550781 234.464844 328.785156 234.136719 C 329.023438 233.808594 329.289062 233.507812 329.585938 233.234375 C 329.882812 232.957031 330.203125 232.714844 330.546875 232.5 C 330.890625 232.289062 331.25 232.109375 331.632812 231.96875 C 332.011719 231.828125 332.398438 231.726562 332.800781 231.660156 C 333.199219 231.59375 333.601562 231.570312 334.003906 231.585938 C 334.410156 231.597656 334.808594 231.652344 335.203125 231.746094 Z M 335.203125 231.746094 " fill-opacity="1" fill-rule="nonzero"/><path fill="#ffa18a" d="M 285.488281 263.636719 L 259.222656 281.082031 L 240.839844 234.039062 L 225.28125 240.511719 L 241.941406 300.015625 C 245.082031 309.417969 255.753906 313.957031 264.710938 309.695312 L 281.113281 301.898438 Z M 285.488281 263.636719 " fill-opacity="1" fill-rule="nonzero"/><path fill="#3d3936" d="M 272.515625 272.671875 L 270.121094 307.125 L 281.113281 301.898438 L 285.488281 263.636719 Z M 272.515625 272.671875 " fill-opacity="1" fill-rule="nonzero"/><path fill="#ffc67b" d="M 288.410156 300.230469 L 293.140625 341.773438 L 374.800781 341.773438 L 356.609375 270.863281 C 353.679688 259.441406 343.457031 251.398438 331.660156 251.234375 L 310.769531 250.941406 C 301.027344 250.804688 293.4375 254.570312 284.109375 260.460938 L 271.773438 268.550781 L 278.589844 306.351562 Z M 288.410156 300.230469 " fill-opacity="1" fill-rule="nonzero"/><path fill="#e59742" d="M 321.785156 341.722656 L 374.800781 341.722656 L 361.039062 288.117188 Z M 321.785156 341.722656 " fill-opacity="1" fill-rule="nonzero"/><path fill="#e59742" d="M 286.988281 283.109375 L 285.488281 302.050781 L 288.410156 300.230469 Z M 286.988281 283.109375 " fill-opacity="1" fill-rule="nonzero"/><g clip-path="url(#74588dd1e0)"><path fill="#ffa18a" d="M 330.058594 273.363281 L 315.289062 320.925781 L 262.714844 324.484375 L 262.714844 343.304688 L 319.175781 341.71875 C 328.503906 341.457031 336.695312 335.457031 339.75 326.648438 L 354.324219 284.628906 Z M 330.058594 273.363281 " fill-opacity="1" fill-rule="nonzero"/></g><path fill="#ffa18a" d="M 262.714844 324.484375 L 260.210938 324.484375 C 253.660156 324.484375 247.40625 327.648438 243.867188 333.160156 C 243 334.511719 242.457031 335.804688 242.554688 336.839844 C 242.941406 340.988281 267.363281 337.996094 267.363281 337.996094 Z M 262.714844 324.484375 " fill-opacity="1" fill-rule="nonzero"/><path fill="#3d3936" d="M 345.761719 309.367188 L 354.324219 284.628906 L 330.058594 273.363281 L 320.414062 304.300781 Z M 345.761719 309.367188 " fill-opacity="1" fill-rule="nonzero"/><path fill="#ffc67b" d="M 327.449219 270.6875 L 320.257812 295.773438 L 348.726562 308.753906 L 356.265625 285.640625 " fill-opacity="1" fill-rule="nonzero"/><path fill="#3d3936" d="M 348.574219 309.085938 L 320.105469 296.105469 C 319.941406 296.027344 319.859375 295.84375 319.90625 295.671875 L 327.097656 270.585938 C 327.152344 270.394531 327.355469 270.28125 327.550781 270.335938 C 327.742188 270.390625 327.855469 270.59375 327.800781 270.789062 L 320.695312 295.570312 L 348.507812 308.25 L 355.917969 285.527344 C 355.980469 285.335938 356.1875 285.230469 356.378906 285.292969 C 356.570312 285.355469 356.675781 285.5625 356.613281 285.753906 L 349.074219 308.867188 C 349.007812 309.074219 348.777344 309.175781 348.574219 309.085938 Z M 348.574219 309.085938 " fill-opacity="1" fill-rule="nonzero"/><path fill="#3d3936" d="M 312.082031 209.152344 C 312.730469 209.417969 313.34375 209.746094 313.925781 210.136719 C 314.507812 210.523438 315.046875 210.964844 315.542969 211.460938 C 316.035156 211.953125 316.480469 212.492188 316.867188 213.074219 C 317.257812 213.65625 317.585938 214.269531 317.851562 214.914062 C 318.121094 215.5625 318.324219 216.226562 318.460938 216.914062 C 318.597656 217.601562 318.664062 218.292969 318.664062 218.992188 C 318.664062 219.691406 318.597656 220.382812 318.460938 221.070312 C 318.324219 221.753906 318.121094 222.421875 317.851562 223.066406 C 317.585938 223.714844 317.257812 224.328125 316.867188 224.910156 C 316.480469 225.492188 316.035156 226.027344 315.542969 226.523438 C 315.046875 227.015625 314.507812 227.460938 313.925781 227.847656 C 313.34375 228.234375 312.730469 228.5625 312.082031 228.832031 C 311.4375 229.097656 310.769531 229.300781 310.082031 229.4375 C 309.398438 229.574219 308.703125 229.640625 308.003906 229.640625 C 307.304688 229.644531 306.609375 229.574219 305.925781 229.4375 C 305.238281 229.300781 304.570312 229.097656 303.925781 228.832031 C 303.277344 228.5625 302.664062 228.234375 302.082031 227.847656 C 301.5 227.460938 300.960938 227.015625 300.464844 226.523438 C 299.972656 226.027344 299.527344 225.492188 299.140625 224.910156 C 298.75 224.328125 298.421875 223.714844 298.15625 223.066406 C 297.886719 222.421875 297.683594 221.753906 297.546875 221.070312 C 297.410156 220.382812 297.34375 219.691406 297.34375 218.992188 C 297.34375 218.292969 297.410156 217.601562 297.546875 216.914062 C 297.683594 216.226562 297.886719 215.5625 298.15625 214.914062 C 298.421875 214.269531 298.75 213.65625 299.140625 213.074219 C 299.527344 212.492188 299.972656 211.953125 300.464844 211.460938 C 300.960938 210.964844 301.5 210.523438 302.082031 210.136719 C 302.664062 209.746094 303.277344 209.417969 303.925781 209.152344 C 304.570312 208.882812 305.238281 208.683594 305.925781 208.546875 C 306.609375 208.410156 307.304688 208.339844 308.003906 208.339844 C 308.703125 208.339844 309.398438 208.410156 310.082031 208.546875 C 310.769531 208.683594 311.4375 208.882812 312.082031 209.152344 Z M 312.082031 209.152344 " fill-opacity="1" fill-rule="nonzero"/><path fill="#3d3936" d="M 344.988281 227.519531 C 344.988281 228.21875 344.921875 228.910156 344.785156 229.597656 C 344.648438 230.285156 344.445312 230.949219 344.175781 231.59375 C 343.910156 232.242188 343.582031 232.855469 343.191406 233.4375 C 342.804688 234.019531 342.359375 234.554688 341.867188 235.050781 C 341.371094 235.546875 340.832031 235.988281 340.25 236.375 C 339.667969 236.765625 339.054688 237.09375 338.40625 237.359375 C 337.761719 237.628906 337.09375 237.828125 336.40625 237.964844 C 335.722656 238.101562 335.027344 238.171875 334.328125 238.171875 C 333.628906 238.171875 332.933594 238.101562 332.25 237.964844 C 331.5625 237.828125 330.894531 237.628906 330.25 237.359375 C 329.601562 237.09375 328.988281 236.765625 328.40625 236.375 C 327.824219 235.988281 327.285156 235.546875 326.789062 235.050781 C 326.296875 234.554688 325.851562 234.019531 325.464844 233.4375 C 325.074219 232.855469 324.746094 232.242188 324.480469 231.59375 C 324.210938 230.949219 324.007812 230.285156 323.871094 229.597656 C 323.734375 228.910156 323.667969 228.21875 323.667969 227.519531 C 323.667969 226.820312 323.734375 226.128906 323.871094 225.441406 C 324.007812 224.757812 324.210938 224.089844 324.480469 223.445312 C 324.746094 222.796875 325.074219 222.183594 325.464844 221.601562 C 325.851562 221.019531 326.296875 220.484375 326.789062 219.988281 C 327.285156 219.492188 327.824219 219.050781 328.40625 218.664062 C 328.988281 218.273438 329.601562 217.945312 330.25 217.679688 C 330.894531 217.410156 331.5625 217.210938 332.25 217.074219 C 332.933594 216.9375 333.628906 216.867188 334.328125 216.867188 C 335.027344 216.867188 335.722656 216.9375 336.40625 217.074219 C 337.09375 217.210938 337.761719 217.410156 338.40625 217.679688 C 339.054688 217.945312 339.667969 218.273438 340.25 218.664062 C 340.832031 219.050781 341.371094 219.492188 341.867188 219.988281 C 342.359375 220.484375 342.804688 221.019531 343.191406 221.601562 C 343.582031 222.183594 343.910156 222.796875 344.175781 223.445312 C 344.445312 224.089844 344.648438 224.757812 344.785156 225.441406 C 344.921875 226.128906 344.988281 226.820312 344.988281 227.519531 Z M 344.988281 227.519531 " fill-opacity="1" fill-rule="nonzero"/><g clip-path="url(#e2d50669ae)"><path fill="#ffffff" d="M 129.710938 284.082031 L 150.253906 337.640625 C 151.5625 341.050781 154.835938 343.300781 158.492188 343.300781 L 245.222656 343.300781 C 247.652344 343.300781 249.324219 340.871094 248.457031 338.605469 L 227.914062 285.046875 C 226.605469 281.636719 223.332031 279.386719 219.675781 279.386719 L 132.941406 279.386719 C 130.515625 279.386719 128.839844 281.820312 129.710938 284.082031 Z M 129.710938 284.082031 " fill-opacity="1" fill-rule="nonzero"/></g><g clip-path="url(#efeddb7f62)"><path fill="#bde3ff" d="M 243.859375 337.378906 L 243.859375 343.300781 L 158.492188 343.300781 C 154.835938 343.300781 151.5625 341.050781 150.253906 337.640625 L 150.152344 337.378906 Z M 243.859375 337.378906 " fill-opacity="0.4" fill-rule="nonzero"/></g><g clip-path="url(#788a85ce05)"><path fill="#3d3936" d="M 245.222656 343.667969 L 158.492188 343.667969 C 154.710938 343.667969 151.265625 341.300781 149.910156 337.773438 L 129.367188 284.214844 C 128.410156 281.710938 130.261719 279.023438 132.941406 279.023438 L 219.675781 279.023438 C 223.457031 279.023438 226.902344 281.390625 228.253906 284.917969 L 248.796875 338.476562 C 249.757812 340.976562 247.90625 343.667969 245.222656 343.667969 Z M 132.941406 279.753906 C 130.777344 279.753906 129.269531 281.917969 130.050781 283.953125 L 150.59375 337.511719 C 151.839844 340.757812 155.011719 342.9375 158.492188 342.9375 L 245.222656 342.9375 C 247.390625 342.9375 248.894531 340.773438 248.117188 338.738281 L 227.574219 285.179688 C 226.328125 281.933594 223.15625 279.753906 219.675781 279.753906 Z M 132.941406 279.753906 " fill-opacity="1" fill-rule="nonzero"/></g><g clip-path="url(#0e474b6cb4)"><path fill="#a3a3f5" d="M 213.878906 279.390625 C 217.53125 279.390625 220.808594 281.640625 222.117188 285.046875 L 242.65625 338.605469 C 243.527344 340.875 241.855469 343.304688 239.425781 343.304688 L 297.136719 343.304688 L 297.136719 341.5625 C 297.136719 338.820312 294.914062 336.601562 292.171875 336.601562 L 247.6875 336.601562 L 227.914062 285.046875 C 226.605469 281.640625 223.328125 279.390625 219.675781 279.390625 Z M 213.878906 279.390625 " fill-opacity="1" fill-rule="nonzero"/></g><g clip-path="url(#fe1972d5f0)"><path fill="#8c8ced" d="M 213.878906 279.390625 C 217.53125 279.390625 220.804688 281.640625 222.113281 285.046875 L 242.660156 338.605469 C 243.527344 340.871094 241.855469 343.304688 239.425781 343.304688 L 242.109375 343.304688 C 244.539062 343.304688 246.214844 340.871094 245.34375 338.605469 L 224.804688 285.046875 C 223.492188 281.640625 220.21875 279.390625 216.566406 279.390625 Z M 213.878906 279.390625 " fill-opacity="1" fill-rule="nonzero"/></g><g clip-path="url(#4826190cc1)"><path fill="#3d3936" d="M 297.136719 343.667969 L 239.425781 343.667969 C 239.226562 343.667969 239.0625 343.503906 239.0625 343.304688 C 239.0625 343.101562 239.226562 342.9375 239.425781 342.9375 C 241.601562 342.9375 243.097656 340.765625 242.316406 338.734375 L 221.773438 285.175781 C 220.527344 281.933594 217.355469 279.753906 213.878906 279.753906 C 213.675781 279.753906 213.515625 279.589844 213.515625 279.390625 C 213.515625 279.1875 213.675781 279.023438 213.878906 279.023438 L 219.675781 279.023438 C 223.453125 279.023438 226.902344 281.390625 228.253906 284.917969 L 247.9375 336.234375 L 292.171875 336.234375 C 295.109375 336.234375 297.503906 338.625 297.503906 341.5625 L 297.503906 343.304688 C 297.503906 343.503906 297.339844 343.667969 297.136719 343.667969 Z M 241.675781 342.9375 L 296.769531 342.9375 L 296.769531 341.5625 C 296.769531 339.027344 294.707031 336.964844 292.171875 336.964844 L 247.6875 336.964844 C 247.535156 336.964844 247.398438 336.871094 247.34375 336.730469 L 227.574219 285.175781 C 226.328125 281.933594 223.152344 279.753906 219.675781 279.753906 L 217.449219 279.753906 C 219.703125 280.710938 221.550781 282.554688 222.457031 284.917969 L 243 338.476562 C 243.621094 340.09375 243.074219 341.921875 241.675781 342.9375 Z M 241.675781 342.9375 " fill-opacity="1" fill-rule="nonzero"/></g><path fill="#ffffff" d="M 280.734375 339.335938 L 288.589844 339.335938 C 289.117188 339.335938 289.546875 339.765625 289.546875 340.292969 C 289.546875 340.820312 289.117188 341.246094 288.589844 341.246094 L 280.734375 341.246094 C 280.207031 341.246094 279.777344 340.820312 279.777344 340.292969 C 279.777344 339.765625 280.207031 339.335938 280.734375 339.335938 Z M 280.734375 339.335938 " fill-opacity="1" fill-rule="nonzero"/><path fill="#ffffff" d="M 276.328125 340.292969 C 276.328125 340.820312 275.898438 341.246094 275.371094 341.246094 L 273.578125 341.246094 C 273.050781 341.246094 272.625 340.820312 272.625 340.292969 C 272.625 339.765625 273.050781 339.335938 273.578125 339.335938 L 275.371094 339.335938 C 275.898438 339.335938 276.328125 339.765625 276.328125 340.292969 Z M 276.328125 340.292969 " fill-opacity="1" fill-rule="nonzero"/><path fill="#a3a3f5" d="M 176.164062 311.339844 C 177.574219 315.25 181.917969 318.421875 185.867188 318.421875 C 189.808594 318.421875 191.863281 315.25 190.453125 311.339844 C 189.046875 307.4375 184.699219 304.269531 180.761719 304.269531 C 176.8125 304.269531 174.753906 307.4375 176.164062 311.339844 Z M 176.164062 311.339844 " fill-opacity="1" fill-rule="nonzero"/><path fill="#8c8ced" d="M 176.160156 311.335938 C 177.574219 315.25 181.921875 318.421875 185.867188 318.421875 C 188.242188 318.421875 189.925781 317.273438 190.585938 315.5 C 185.238281 319.214844 175.347656 311.164062 177.609375 305.167969 C 175.851562 306.363281 175.203125 308.683594 176.160156 311.335938 Z M 176.160156 311.335938 " fill-opacity="1" fill-rule="nonzero"/><path fill="#3d3936" d="M 185.867188 318.785156 C 181.785156 318.785156 177.277344 315.5 175.820312 311.464844 C 174.300781 307.261719 176.613281 303.90625 180.761719 303.90625 C 184.839844 303.90625 189.34375 307.183594 190.796875 311.214844 C 192.347656 315.511719 189.910156 318.785156 185.867188 318.785156 Z M 180.761719 304.636719 C 177.136719 304.636719 175.160156 307.484375 176.507812 311.214844 C 177.867188 314.988281 182.066406 318.054688 185.867188 318.054688 C 189.527344 318.054688 191.445312 315.164062 190.109375 311.464844 C 188.75 307.699219 184.554688 304.636719 180.761719 304.636719 Z M 180.761719 304.636719 " fill-opacity="1" fill-rule="nonzero"/><path fill="#ffa18a" d="M 333.875 232.710938 L 333.875 251.1875 L 324.941406 260.050781 L 317.945312 250.9375 L 317.945312 235.625 L 331.535156 233.140625 Z M 333.875 232.710938 " fill-opacity="1" fill-rule="nonzero"/><path fill="#3d3936" d="M 331.535156 233.140625 C 330.210938 240.234375 324.753906 245.46875 317.945312 246.917969 L 317.945312 235.625 Z M 331.535156 233.140625 " fill-opacity="1" fill-rule="nonzero"/><path fill="#3d3936" d="M 324.65625 260.269531 L 317.652344 251.160156 C 317.53125 251 317.5625 250.769531 317.722656 250.648438 C 317.882812 250.527344 318.113281 250.554688 318.234375 250.714844 L 324.980469 259.496094 L 333.617188 250.925781 C 333.757812 250.78125 333.992188 250.78125 334.132812 250.925781 C 334.273438 251.066406 334.273438 251.300781 334.132812 251.441406 L 325.203125 260.304688 C 325.046875 260.460938 324.789062 260.445312 324.65625 260.269531 Z M 324.65625 260.269531 " fill-opacity="1" fill-rule="nonzero"/><path fill="#ffa18a" d="M 334.988281 226.902344 C 334.988281 236.566406 327.652344 243.710938 318.664062 244.398438 C 305.566406 245.402344 302.339844 236.566406 302.339844 226.902344 C 302.339844 217.242188 309.648438 209.40625 318.664062 209.40625 C 327.679688 209.40625 334.988281 217.242188 334.988281 226.902344 Z M 334.988281 226.902344 " fill-opacity="1" fill-rule="nonzero"/><path fill="#3d3936" d="M 306.167969 236.460938 C 303.054688 236.460938 300.523438 233.929688 300.523438 230.820312 C 300.523438 227.714844 303.054688 225.183594 306.167969 225.183594 C 309.277344 225.183594 311.808594 227.714844 311.808594 230.820312 C 311.808594 233.929688 309.277344 236.460938 306.167969 236.460938 Z M 306.167969 225.914062 C 303.457031 225.914062 301.253906 228.117188 301.253906 230.820312 C 301.253906 233.527344 303.457031 235.730469 306.167969 235.730469 C 308.875 235.730469 311.078125 233.527344 311.078125 230.820312 C 311.078125 228.117188 308.875 225.914062 306.167969 225.914062 Z M 306.167969 225.914062 " fill-opacity="1" fill-rule="nonzero"/><path fill="#3d3936" d="M 319.464844 237.949219 C 316.351562 237.949219 313.820312 235.417969 313.820312 232.308594 C 313.820312 229.203125 316.351562 226.671875 319.464844 226.671875 C 322.574219 226.671875 325.105469 229.203125 325.105469 232.308594 C 325.105469 235.417969 322.574219 237.949219 319.464844 237.949219 Z M 319.464844 227.402344 C 316.753906 227.402344 314.550781 229.605469 314.550781 232.308594 C 314.550781 235.015625 316.753906 237.21875 319.464844 237.21875 C 322.171875 237.21875 324.375 235.015625 324.375 232.308594 C 324.375 229.605469 322.171875 227.402344 319.464844 227.402344 Z M 319.464844 227.402344 " fill-opacity="1" fill-rule="nonzero"/><path fill="#3d3936" d="M 341.007812 215.382812 C 341.007812 216.226562 340.894531 217.058594 340.667969 217.886719 C 340.441406 218.710938 340.105469 219.515625 339.660156 220.292969 C 339.214844 221.070312 338.667969 221.808594 338.019531 222.507812 C 337.375 223.210938 336.640625 223.855469 335.816406 224.453125 C 334.996094 225.046875 334.097656 225.578125 333.132812 226.046875 C 332.164062 226.515625 331.144531 226.910156 330.070312 227.230469 C 328.992188 227.554688 327.886719 227.796875 326.746094 227.960938 C 325.601562 228.125 324.449219 228.207031 323.289062 228.207031 C 322.125 228.207031 320.972656 228.125 319.832031 227.960938 C 318.6875 227.796875 317.582031 227.554688 316.507812 227.230469 C 315.429688 226.910156 314.410156 226.515625 313.441406 226.046875 C 312.476562 225.578125 311.582031 225.046875 310.757812 224.453125 C 309.933594 223.855469 309.199219 223.210938 308.554688 222.507812 C 307.90625 221.808594 307.363281 221.070312 306.917969 220.292969 C 306.472656 219.515625 306.136719 218.710938 305.90625 217.886719 C 305.679688 217.058594 305.566406 216.226562 305.566406 215.382812 C 305.566406 214.542969 305.679688 213.707031 305.90625 212.882812 C 306.136719 212.058594 306.472656 211.253906 306.917969 210.476562 C 307.363281 209.699219 307.90625 208.960938 308.554688 208.261719 C 309.199219 207.558594 309.933594 206.910156 310.757812 206.316406 C 311.582031 205.722656 312.476562 205.191406 313.441406 204.722656 C 314.410156 204.253906 315.429688 203.859375 316.507812 203.535156 C 317.582031 203.214844 318.6875 202.972656 319.832031 202.808594 C 320.972656 202.644531 322.125 202.5625 323.289062 202.5625 C 324.449219 202.5625 325.601562 202.644531 326.746094 202.808594 C 327.886719 202.972656 328.992188 203.214844 330.070312 203.535156 C 331.144531 203.859375 332.164062 204.253906 333.132812 204.722656 C 334.097656 205.191406 334.996094 205.722656 335.816406 206.316406 C 336.640625 206.910156 337.375 207.558594 338.019531 208.261719 C 338.667969 208.960938 339.214844 209.699219 339.660156 210.476562 C 340.105469 211.253906 340.441406 212.058594 340.667969 212.882812 C 340.894531 213.707031 341.007812 214.542969 341.007812 215.382812 Z M 341.007812 215.382812 " fill-opacity="1" fill-rule="nonzero"/><path fill="#ffffff" d="M 316.300781 233.789062 C 316.429688 233.789062 318.476562 235.09375 320.113281 233.460938 C 320.855469 232.6875 321.175781 231.632812 321.175781 231.632812 C 321.175781 231.632812 320.121094 231.058594 319.003906 231.15625 C 319.007812 231.152344 319.003906 231.152344 319.003906 231.152344 C 318.722656 231.179688 318.46875 231.234375 318.214844 231.347656 C 316.867188 231.945312 316.300781 233.789062 316.300781 233.789062 Z M 316.300781 233.789062 " fill-opacity="1" fill-rule="nonzero"/><path fill="#3d3936" d="M 316.300781 233.789062 C 316.375 233.789062 318.453125 235.011719 319.964844 233.605469 C 320.089844 232.652344 319.699219 231.734375 319.003906 231.15625 C 319.007812 231.152344 319.003906 231.152344 319.003906 231.152344 C 318.722656 231.179688 318.46875 231.234375 318.214844 231.347656 C 316.867188 231.945312 316.300781 233.789062 316.300781 233.789062 Z M 316.300781 233.789062 " fill-opacity="1" fill-rule="nonzero"/><path fill="#3d3936" d="M 312.453125 235.328125 C 311.742188 235.328125 311.28125 235.117188 311.050781 234.691406 C 310.347656 233.402344 312.570312 230.765625 313.023438 230.25 C 313.15625 230.097656 313.390625 230.082031 313.539062 230.214844 C 313.691406 230.347656 313.707031 230.578125 313.574219 230.730469 C 312.617188 231.824219 311.355469 233.726562 311.691406 234.34375 C 311.820312 234.582031 312.320312 234.65625 313.0625 234.546875 C 313.265625 234.515625 313.449219 234.65625 313.480469 234.855469 C 313.507812 235.054688 313.371094 235.242188 313.171875 235.269531 C 312.910156 235.308594 312.667969 235.328125 312.453125 235.328125 Z M 312.453125 235.328125 " fill-opacity="1" fill-rule="nonzero"/><path fill="#3d3936" d="M 309.949219 238.855469 C 309.863281 238.675781 309.9375 238.457031 310.121094 238.367188 C 310.300781 238.28125 310.519531 238.355469 310.609375 238.539062 C 311.003906 239.355469 312.507812 239.902344 313.527344 238.484375 C 313.644531 238.320312 313.871094 238.28125 314.035156 238.402344 C 314.199219 238.519531 314.238281 238.746094 314.121094 238.910156 C 312.746094 240.820312 310.558594 240.109375 309.949219 238.855469 Z M 309.949219 238.855469 " fill-opacity="1" fill-rule="nonzero"/><path fill="#52adff" d="M 288.410156 300.230469 L 286.398438 276 " fill-opacity="1" fill-rule="nonzero"/><path fill="#3d3936" d="M 288.40625 300.597656 C 288.21875 300.597656 288.058594 300.453125 288.042969 300.261719 L 286.035156 276.03125 C 286.019531 275.832031 286.167969 275.65625 286.371094 275.636719 C 286.570312 275.625 286.746094 275.769531 286.765625 275.972656 L 288.773438 300.199219 C 288.789062 300.414062 288.621094 300.597656 288.40625 300.597656 Z M 288.40625 300.597656 " fill-opacity="1" fill-rule="nonzero"/><path fill="#3d3936" d="M 320.300781 322.988281 L 315.171875 321.273438 C 314.980469 321.207031 314.878906 321 314.941406 320.808594 C 315.007812 320.617188 315.214844 320.515625 315.40625 320.578125 L 320.53125 322.296875 C 320.722656 322.359375 320.828125 322.566406 320.761719 322.757812 C 320.699219 322.949219 320.492188 323.050781 320.300781 322.988281 Z M 320.300781 322.988281 " fill-opacity="1" fill-rule="nonzero"/><path fill="#3d3936" d="M 315.839844 325.507812 C 315.640625 325.507812 315.476562 325.34375 315.476562 325.144531 L 315.476562 322.640625 C 315.476562 322.4375 315.640625 322.277344 315.839844 322.277344 C 316.042969 322.277344 316.207031 322.4375 316.207031 322.640625 L 316.207031 325.144531 C 316.207031 325.34375 316.042969 325.507812 315.839844 325.507812 Z M 315.839844 325.507812 " fill-opacity="1" fill-rule="nonzero"/><path fill="#3d3936" d="M 258.136719 286.742188 C 257.9375 286.703125 257.808594 286.511719 257.847656 286.3125 L 258.863281 281.011719 C 258.902344 280.816406 259.097656 280.6875 259.292969 280.722656 C 259.492188 280.761719 259.621094 280.953125 259.582031 281.152344 L 258.566406 286.449219 C 258.527344 286.644531 258.339844 286.777344 258.136719 286.742188 Z M 258.136719 286.742188 " fill-opacity="1" fill-rule="nonzero"/><path fill="#3d3936" d="M 254.496094 284.5 C 254.351562 284.355469 254.355469 284.125 254.5 283.984375 L 256.839844 281.710938 C 256.984375 281.570312 257.214844 281.574219 257.355469 281.71875 C 257.496094 281.863281 257.492188 282.09375 257.347656 282.234375 L 255.011719 284.507812 C 254.867188 284.648438 254.636719 284.644531 254.496094 284.5 Z M 254.496094 284.5 " fill-opacity="1" fill-rule="nonzero"/><path fill="#ffc67b" d="M 322.285156 288.699219 L 351.324219 300.796875 " fill-opacity="1" fill-rule="nonzero"/><path fill="#3d3936" d="M 351.183594 301.132812 L 322.144531 289.039062 C 321.957031 288.960938 321.871094 288.746094 321.949219 288.558594 C 322.027344 288.375 322.242188 288.285156 322.425781 288.363281 L 351.464844 300.460938 C 351.648438 300.535156 351.738281 300.75 351.660156 300.9375 C 351.582031 301.125 351.367188 301.210938 351.183594 301.132812 Z M 351.183594 301.132812 " fill-opacity="1" fill-rule="nonzero"/><path fill="#ffc67b" d="M 277.804688 264.59375 L 284.660156 302.566406 " fill-opacity="1" fill-rule="nonzero"/><path fill="#3d3936" d="M 284.300781 302.632812 L 277.445312 264.660156 C 277.410156 264.460938 277.542969 264.269531 277.738281 264.234375 C 277.941406 264.199219 278.128906 264.332031 278.164062 264.53125 L 285.023438 302.5 C 285.058594 302.699219 284.925781 302.890625 284.726562 302.925781 C 284.527344 302.960938 284.339844 302.828125 284.300781 302.632812 Z M 284.300781 302.632812 " fill-opacity="1" fill-rule="nonzero"/><path fill="#ffffff" d="M 304.128906 232.898438 C 304.128906 232.898438 305.746094 233.777344 307.09375 233.179688 C 308.441406 232.585938 308.953125 230.816406 309.003906 230.742188 C 309.003906 230.742188 307.945312 230.167969 306.832031 230.261719 C 306.832031 230.257812 306.832031 230.257812 306.832031 230.257812 C 304.804688 230.445312 304.195312 232.824219 304.128906 232.898438 Z M 304.128906 232.898438 " fill-opacity="1" fill-rule="nonzero"/><path fill="#3d3936" d="M 304.128906 232.898438 C 304.203125 232.898438 306.277344 234.121094 307.789062 232.714844 C 307.914062 231.757812 307.523438 230.839844 306.832031 230.261719 C 306.832031 230.257812 306.832031 230.257812 306.832031 230.257812 C 304.804688 230.445312 304.195312 232.824219 304.128906 232.898438 Z M 304.128906 232.898438 " fill-opacity="1" fill-rule="nonzero"/><path fill="#3d3936" d="M 323.667969 229.34375 L 329.820312 224.949219 L 330.246094 225.542969 L 324.09375 229.9375 Z M 323.667969 229.34375 " fill-opacity="1" fill-rule="nonzero"/><path fill="#ffa18a" d="M 338.398438 228.210938 C 338.398438 231.179688 335.984375 233.589844 333.007812 233.589844 C 330.035156 233.589844 327.621094 231.179688 327.621094 228.210938 C 327.621094 225.234375 330.035156 222.824219 333.007812 222.824219 C 335.984375 222.824219 338.398438 225.234375 338.398438 228.210938 Z M 338.398438 228.210938 " fill-opacity="1" fill-rule="nonzero"/><path fill="#3d3936" d="M 333.007812 233.957031 C 332.804688 233.957031 332.644531 233.792969 332.644531 233.589844 C 332.644531 233.390625 332.804688 233.226562 333.007812 233.226562 C 335.777344 233.226562 338.03125 230.976562 338.03125 228.210938 C 338.03125 225.441406 335.777344 223.191406 333.007812 223.191406 C 330.242188 223.191406 327.988281 225.441406 327.988281 228.210938 C 327.988281 228.414062 327.824219 228.574219 327.621094 228.574219 C 327.421875 228.574219 327.257812 228.414062 327.257812 228.210938 C 327.257812 225.039062 329.835938 222.460938 333.007812 222.460938 C 336.183594 222.460938 338.765625 225.039062 338.765625 228.210938 C 338.765625 231.378906 336.183594 233.957031 333.007812 233.957031 Z M 333.007812 233.957031 " fill-opacity="1" fill-rule="nonzero"/><path fill="#3d3936" d="M 331.511719 229.390625 C 331.308594 229.375 331.15625 229.203125 331.171875 229 C 331.40625 225.765625 333.738281 225.648438 333.761719 225.648438 C 333.96875 225.632812 334.132812 225.796875 334.136719 226 C 334.144531 226.199219 333.988281 226.367188 333.789062 226.375 C 333.707031 226.382812 332.085938 226.503906 331.902344 229.054688 C 331.886719 229.257812 331.707031 229.40625 331.511719 229.390625 Z M 331.511719 229.390625 " fill-opacity="1" fill-rule="nonzero"/><path fill="#3d3936" d="M 331.242188 229.101562 C 331.125 228.9375 331.15625 228.710938 331.320312 228.589844 C 332.796875 227.492188 333.9375 228.019531 334.339844 228.449219 C 334.476562 228.597656 334.464844 228.828125 334.316406 228.964844 C 334.171875 229.101562 333.941406 229.09375 333.804688 228.949219 C 333.726562 228.871094 333.03125 228.226562 331.753906 229.175781 C 331.589844 229.296875 331.363281 229.261719 331.242188 229.101562 Z M 331.242188 229.101562 " fill-opacity="1" fill-rule="nonzero"/><path fill="#3d3936" d="M 314.949219 229.5 C 313.660156 228.949219 312.476562 228.945312 311.335938 229.492188 C 311.152344 229.578125 310.933594 229.503906 310.847656 229.320312 C 310.757812 229.136719 310.835938 228.921875 311.019531 228.832031 C 312.34375 228.199219 313.761719 228.195312 315.234375 228.828125 C 315.421875 228.90625 315.507812 229.121094 315.425781 229.308594 C 315.347656 229.492188 315.128906 229.578125 314.949219 229.5 Z M 314.949219 229.5 " fill-opacity="1" fill-rule="nonzero"/><path fill="#ffa18a" d="M 306.332031 129.03125 L 311.039062 158.273438 L 254.726562 163.574219 L 256.019531 182.273438 L 321.402344 181.292969 C 330.636719 181.15625 337.667969 172.96875 336.394531 163.828125 L 331.269531 127.003906 L 331.257812 126.824219 Z M 306.332031 129.03125 " fill-opacity="1" fill-rule="nonzero"/><path fill="#3d3936" d="M 309.875 151.214844 L 333.769531 144.972656 L 332.601562 136.5625 L 309.632812 149.550781 Z M 309.875 151.214844 " fill-opacity="1" fill-rule="nonzero"/><path fill="#3d3936" d="M 315.902344 160.683594 L 310.882812 158.617188 C 310.695312 158.539062 310.605469 158.328125 310.683594 158.140625 C 310.757812 157.953125 310.972656 157.867188 311.160156 157.941406 L 316.179688 160.007812 C 316.367188 160.085938 316.453125 160.296875 316.378906 160.484375 C 316.300781 160.667969 316.089844 160.761719 315.902344 160.683594 Z M 315.902344 160.683594 " fill-opacity="1" fill-rule="nonzero"/><path fill="#3d3936" d="M 312.378906 163.246094 L 312.042969 160.570312 C 312.019531 160.367188 312.160156 160.1875 312.359375 160.160156 C 312.5625 160.132812 312.746094 160.277344 312.769531 160.476562 L 313.101562 163.15625 C 313.128906 163.355469 312.984375 163.539062 312.785156 163.5625 C 312.597656 163.589844 312.402344 163.453125 312.378906 163.246094 Z M 312.378906 163.246094 " fill-opacity="1" fill-rule="nonzero"/><path fill="#ffa18a" d="M 256.019531 182.273438 L 245.082031 182.527344 L 240.871094 182.511719 C 239.554688 182.507812 238.503906 181.394531 238.582031 180.078125 C 238.632812 179.117188 239.292969 178.265625 240.242188 178.003906 L 238.945312 177.996094 C 237.613281 177.980469 236.582031 176.882812 236.652344 175.558594 C 236.710938 174.539062 237.433594 173.699219 238.398438 173.460938 L 237.375 173.453125 C 236.0625 173.449219 235.011719 172.34375 235.082031 171.011719 C 235.152344 169.820312 236.125 168.878906 237.320312 168.847656 L 239.527344 168.789062 C 238.351562 168.632812 237.46875 167.585938 237.535156 166.371094 C 237.59375 165.214844 238.566406 164.234375 239.773438 164.207031 L 247.949219 163.863281 L 246.578125 159.605469 C 246.394531 159.015625 246.480469 158.371094 246.816406 157.855469 C 247.582031 156.683594 249.277344 156.609375 250.144531 157.714844 L 254.726562 163.574219 Z M 256.019531 182.273438 " fill-opacity="1" fill-rule="nonzero"/><path fill="#3d3936" d="M 247.601562 163.972656 L 246.230469 159.71875 C 246.011719 159.015625 246.113281 158.265625 246.507812 157.65625 C 247.390625 156.304688 249.378906 156.148438 250.429688 157.492188 L 255.015625 163.347656 C 255.140625 163.507812 255.113281 163.738281 254.953125 163.859375 C 254.792969 163.984375 254.5625 163.957031 254.4375 163.796875 L 249.855469 157.941406 C 249.148438 157.039062 247.757812 157.082031 247.121094 158.054688 C 246.84375 158.480469 246.773438 159.003906 246.929688 159.496094 L 248.296875 163.75 C 248.359375 163.941406 248.253906 164.148438 248.058594 164.210938 C 247.867188 164.269531 247.660156 164.164062 247.601562 163.972656 Z M 247.601562 163.972656 " fill-opacity="1" fill-rule="nonzero"/><path fill="#3d3936" d="M 239.527344 169.15625 C 239.335938 169.15625 239.171875 169.003906 239.164062 168.808594 C 239.152344 168.609375 239.304688 168.4375 239.507812 168.425781 L 248.101562 167.941406 C 248.300781 167.929688 248.476562 168.082031 248.488281 168.285156 C 248.5 168.484375 248.34375 168.65625 248.140625 168.667969 C 238.648438 169.203125 242.027344 169.015625 239.527344 169.15625 Z M 239.527344 169.15625 " fill-opacity="1" fill-rule="nonzero"/><path fill="#3d3936" d="M 239.125 173.773438 C 238.933594 173.773438 238.769531 173.625 238.761719 173.429688 C 238.75 173.230469 238.902344 173.054688 239.105469 173.046875 L 247.699219 172.558594 C 247.894531 172.546875 248.074219 172.703125 248.085938 172.902344 C 248.097656 173.105469 247.941406 173.277344 247.742188 173.289062 C 238.246094 173.824219 241.625 173.632812 239.125 173.773438 Z M 239.125 173.773438 " fill-opacity="1" fill-rule="nonzero"/><path fill="#3d3936" d="M 240.273438 178.296875 C 240.078125 178.296875 239.917969 178.148438 239.90625 177.953125 C 239.894531 177.75 240.050781 177.578125 240.25 177.566406 L 248.847656 177.082031 C 249.039062 177.070312 249.21875 177.222656 249.230469 177.425781 C 249.242188 177.628906 249.089844 177.800781 248.886719 177.8125 C 239.394531 178.347656 242.773438 178.15625 240.273438 178.296875 Z M 240.273438 178.296875 " fill-opacity="1" fill-rule="nonzero"/><path fill="#52adff" d="M 293.75 117.050781 L 306.328125 151.199219 L 336.941406 135.394531 L 329.742188 116.507812 " fill-opacity="1" fill-rule="nonzero"/><path fill="#3d3936" d="M 305.984375 151.324219 L 293.40625 117.175781 C 293.335938 116.988281 293.433594 116.777344 293.621094 116.707031 C 293.8125 116.636719 294.023438 116.734375 294.089844 116.925781 L 306.527344 150.683594 L 336.773438 135.070312 C 336.949219 134.980469 337.171875 135.046875 337.265625 135.226562 C 337.355469 135.40625 337.285156 135.628906 337.109375 135.71875 L 306.496094 151.523438 C 306.300781 151.625 306.0625 151.53125 305.984375 151.324219 Z M 305.984375 151.324219 " fill-opacity="1" fill-rule="nonzero"/><path fill="#ffc67b" d="M 130.835938 131.824219 C 127.53125 134.769531 123.167969 136.566406 118.390625 136.566406 C 113.8125 136.566406 109.621094 134.921875 106.371094 132.1875 C 109.089844 128.289062 113.609375 125.734375 118.734375 125.734375 C 123.695312 125.734375 128.09375 128.128906 130.835938 131.824219 Z M 130.835938 131.824219 " fill-opacity="1" fill-rule="nonzero"/><path fill="#3d3936" d="M 118.390625 136.933594 C 113.90625 136.933594 109.554688 135.347656 106.136719 132.464844 C 101.824219 128.84375 99.351562 123.539062 99.351562 117.910156 C 99.351562 107.425781 107.890625 98.898438 118.390625 98.898438 C 128.886719 98.898438 137.429688 107.425781 137.429688 117.910156 C 137.429688 123.316406 135.113281 128.488281 131.078125 132.097656 C 127.578125 135.214844 123.074219 136.933594 118.390625 136.933594 Z M 118.390625 99.628906 C 108.296875 99.628906 100.082031 107.828125 100.082031 117.910156 C 100.082031 123.324219 102.460938 128.425781 106.605469 131.90625 C 109.894531 134.675781 114.078125 136.203125 118.390625 136.203125 C 122.894531 136.203125 127.226562 134.550781 130.589844 131.550781 C 134.472656 128.082031 136.699219 123.109375 136.699219 117.910156 C 136.699219 107.828125 128.484375 99.628906 118.390625 99.628906 Z M 118.390625 99.628906 " fill-opacity="1" fill-rule="nonzero"/><path fill="#ffa18a" d="M 122.183594 123.597656 L 121.8125 127.484375 C 121.808594 128.789062 115.417969 128.789062 115.417969 127.484375 L 115.667969 119.839844 C 116.449219 122.207031 118.308594 123.761719 121.136719 123.699219 C 121.488281 123.691406 121.84375 123.660156 122.183594 123.597656 Z M 122.183594 123.597656 " fill-opacity="1" fill-rule="nonzero"/><path fill="#ffa18a" d="M 115.25 117.28125 C 115.332031 121.023438 117.386719 123.78125 121.132812 123.699219 C 124.878906 123.617188 127.847656 120.515625 127.765625 116.773438 C 127.683594 113.03125 124.578125 110.0625 120.835938 110.144531 C 117.089844 110.226562 115.167969 113.535156 115.25 117.28125 Z M 115.25 117.28125 " fill-opacity="1" fill-rule="nonzero"/><path fill="#3d3936" d="M 116.570312 113.0625 C 116.570312 113.0625 119.28125 116.640625 115.25 116.980469 L 116.003906 120.65625 C 116.003906 120.65625 114.445312 120.5625 113.398438 119.371094 C 111.949219 117.710938 108.5 110.65625 113.828125 109.890625 C 113.828125 109.890625 111.714844 104.585938 121.453125 104.71875 C 127.984375 104.808594 123.597656 109.402344 123.597656 109.402344 C 123.597656 109.402344 125.292969 108.003906 127.566406 108.300781 C 130.164062 108.640625 131.925781 112.753906 127.515625 115.089844 C 127.515625 115.089844 126.101562 112.222656 122.183594 111.113281 C 122.46875 111.734375 122.421875 112.605469 122.253906 113.5625 C 120.566406 112.488281 118.667969 112.320312 116.570312 113.0625 Z M 116.570312 113.0625 " fill-opacity="1" fill-rule="nonzero"/><path fill="#ffa18a" d="M 114.144531 117.75 C 114.308594 118.660156 115.175781 119.269531 116.089844 119.109375 C 117.003906 118.949219 117.613281 118.078125 117.449219 117.167969 C 117.289062 116.257812 116.417969 115.648438 115.507812 115.808594 C 114.59375 115.96875 113.984375 116.839844 114.144531 117.75 Z M 114.144531 117.75 " fill-opacity="1" fill-rule="nonzero"/><path fill="#3d3936" d="M 115.742188 119.316406 C 115.738281 119.316406 115.738281 119.316406 115.734375 119.316406 C 114.863281 119.289062 114.117188 118.640625 113.964844 117.78125 C 113.789062 116.773438 114.460938 115.808594 115.472656 115.628906 C 116.121094 115.515625 116.789062 115.753906 117.214844 116.253906 C 117.28125 116.332031 117.273438 116.445312 117.195312 116.511719 C 117.121094 116.578125 117.003906 116.570312 116.9375 116.492188 C 116.59375 116.089844 116.058594 115.898438 115.539062 115.988281 C 114.726562 116.132812 114.183594 116.90625 114.324219 117.71875 C 114.449219 118.410156 115.046875 118.929688 115.746094 118.953125 C 115.847656 118.957031 115.925781 119.039062 115.925781 119.140625 C 115.921875 119.238281 115.839844 119.316406 115.742188 119.316406 Z M 115.742188 119.316406 " fill-opacity="1" fill-rule="nonzero"/><path fill="#ffffff" d="M 127.035156 116.253906 C 127.035156 116.253906 126.554688 116.753906 125.929688 116.855469 C 125.054688 117.003906 124.429688 116.214844 124.355469 116.179688 C 124.429688 116.152344 125.109375 115.398438 125.921875 115.585938 C 126.558594 115.703125 127.035156 116.253906 127.035156 116.253906 Z M 127.035156 116.253906 " fill-opacity="1" fill-rule="nonzero"/><path fill="#3d3936" d="M 127.035156 116.253906 C 127.035156 116.253906 126.554688 116.753906 125.929688 116.855469 C 125.734375 116.449219 125.734375 115.980469 125.921875 115.585938 C 126.558594 115.703125 127.035156 116.253906 127.035156 116.253906 Z M 127.035156 116.253906 " fill-opacity="1" fill-rule="nonzero"/><path fill="#ffffff" d="M 122.75 116.5625 C 122.75 116.5625 122.171875 117.164062 121.421875 117.285156 C 120.371094 117.46875 119.601562 116.511719 119.527344 116.476562 C 119.601562 116.445312 120.4375 115.535156 121.410156 115.757812 C 122.175781 115.898438 122.75 116.5625 122.75 116.5625 Z M 122.75 116.5625 " fill-opacity="1" fill-rule="nonzero"/><path fill="#3d3936" d="M 122.75 116.5625 C 122.75 116.5625 122.171875 117.164062 121.421875 117.285156 C 121.1875 116.800781 121.1875 116.234375 121.410156 115.757812 C 122.175781 115.898438 122.75 116.5625 122.75 116.5625 Z M 122.75 116.5625 " fill-opacity="1" fill-rule="nonzero"/><path fill="#3d3936" d="M 119.46875 115.058594 C 119.375 115.023438 119.328125 114.917969 119.363281 114.824219 C 119.398438 114.726562 119.503906 114.679688 119.597656 114.714844 C 120.949219 115.222656 121.457031 114.613281 121.476562 114.589844 C 121.539062 114.511719 121.652344 114.496094 121.734375 114.558594 C 121.8125 114.621094 121.828125 114.734375 121.765625 114.8125 C 121.289062 115.4375 120.25 115.351562 119.46875 115.058594 Z M 119.46875 115.058594 " fill-opacity="1" fill-rule="nonzero"/><path fill="#3d3936" d="M 124.261719 114.636719 C 124.167969 114.601562 124.117188 114.496094 124.152344 114.402344 C 124.191406 114.308594 124.296875 114.257812 124.390625 114.296875 C 125.738281 114.804688 126.246094 114.195312 126.269531 114.167969 C 126.332031 114.089844 126.445312 114.078125 126.523438 114.140625 C 126.605469 114.199219 126.617188 114.3125 126.558594 114.394531 C 126.082031 115.015625 125.042969 114.933594 124.261719 114.636719 Z M 124.261719 114.636719 " fill-opacity="1" fill-rule="nonzero"/><path fill="#3d3936" d="M 122.695312 121.355469 C 123.285156 121.949219 124.128906 121.824219 124.691406 121.246094 C 125.28125 120.644531 125.5 119.714844 125.5 119.714844 C 125.5 119.714844 124.117188 120.621094 121.980469 119.800781 C 121.980469 119.800781 122.136719 120.785156 122.695312 121.355469 Z M 122.695312 121.355469 " fill-opacity="1" fill-rule="nonzero"/><path fill="#ffffff" d="M 122.972656 121.207031 C 123.386719 121.625 123.972656 121.535156 124.367188 121.132812 C 124.195312 120.957031 123.972656 120.839844 123.679688 120.859375 C 123.386719 120.878906 123.15625 121.019531 122.972656 121.207031 Z M 122.972656 121.207031 " fill-opacity="1" fill-rule="nonzero"/><path fill="#3d3936" d="M 124.203125 118.242188 L 123.777344 117.554688 L 123.480469 118.207031 C 123.441406 118.296875 123.332031 118.335938 123.238281 118.296875 C 123.148438 118.253906 123.109375 118.144531 123.148438 118.054688 L 123.589844 117.09375 C 123.648438 116.960938 123.832031 116.945312 123.910156 117.070312 L 124.515625 118.050781 C 124.570312 118.136719 124.542969 118.25 124.457031 118.300781 C 124.371094 118.355469 124.257812 118.328125 124.203125 118.242188 Z M 124.203125 118.242188 " fill-opacity="1" fill-rule="nonzero"/><path fill="#3d3936" d="M 116.109375 117.574219 C 116.042969 117.019531 115.460938 117.015625 115.394531 117.023438 C 115.304688 117.015625 115.207031 116.945312 115.207031 116.84375 C 115.203125 116.746094 115.28125 116.660156 115.378906 116.65625 C 115.726562 116.640625 116.386719 116.8125 116.472656 117.535156 C 116.5 117.773438 116.136719 117.816406 116.109375 117.574219 Z M 116.109375 117.574219 " fill-opacity="1" fill-rule="nonzero"/><path fill="#3d3936" d="M 115.257812 117.6875 C 115.175781 117.628906 115.15625 117.515625 115.214844 117.429688 C 115.535156 116.96875 116.300781 117.246094 116.332031 117.257812 C 116.425781 117.292969 116.476562 117.398438 116.441406 117.492188 C 116.40625 117.585938 116.300781 117.636719 116.207031 117.601562 C 116.070312 117.550781 115.644531 117.449219 115.511719 117.640625 C 115.457031 117.722656 115.34375 117.742188 115.257812 117.6875 Z M 115.257812 117.6875 " fill-opacity="1" fill-rule="nonzero"/><path fill="#3d3936" d="M 122.183594 123.597656 C 122.183594 123.597656 119.730469 124.199219 117.8125 122.808594 C 117.8125 122.808594 118.769531 125.3125 122.007812 125.765625 Z M 122.183594 123.597656 " fill-opacity="1" fill-rule="nonzero"/><path fill="#52adff" d="M 178.574219 105.9375 L 178.574219 112.769531 C 178.574219 113.785156 177.75 114.605469 176.734375 114.605469 L 152.15625 114.605469 C 151.144531 114.605469 150.320312 113.785156 150.320312 112.769531 L 150.320312 105.9375 C 150.320312 104.925781 151.144531 104.101562 152.15625 104.101562 L 176.734375 104.101562 C 177.75 104.101562 178.574219 104.925781 178.574219 105.9375 Z M 178.574219 105.9375 " fill-opacity="1" fill-rule="nonzero"/><path fill="#3d3936" d="M 182.015625 121.851562 L 147.53125 121.851562 C 147.328125 121.851562 147.164062 121.691406 147.164062 121.488281 C 147.164062 121.285156 147.328125 121.121094 147.53125 121.121094 L 182.015625 121.121094 C 182.21875 121.121094 182.382812 121.285156 182.382812 121.488281 C 182.382812 121.691406 182.21875 121.851562 182.015625 121.851562 Z M 182.015625 121.851562 " fill-opacity="1" fill-rule="nonzero"/><path fill="#3d3936" d="M 182.015625 128.03125 L 147.53125 128.03125 C 147.328125 128.03125 147.164062 127.867188 147.164062 127.667969 C 147.164062 127.464844 147.328125 127.300781 147.53125 127.300781 L 182.015625 127.300781 C 182.21875 127.300781 182.382812 127.464844 182.382812 127.667969 C 182.382812 127.867188 182.21875 128.03125 182.015625 128.03125 Z M 182.015625 128.03125 " fill-opacity="1" fill-rule="nonzero"/><path fill="#3d3936" d="M 182.015625 134.210938 L 147.53125 134.210938 C 147.328125 134.210938 147.164062 134.046875 147.164062 133.847656 C 147.164062 133.644531 147.328125 133.480469 147.53125 133.480469 L 182.015625 133.480469 C 182.21875 133.480469 182.382812 133.644531 182.382812 133.847656 C 182.382812 134.046875 182.21875 134.210938 182.015625 134.210938 Z M 182.015625 134.210938 " fill-opacity="1" fill-rule="nonzero"/><path fill="#3d3936" d="M 110.957031 147.425781 L 102.546875 147.425781 C 102.34375 147.425781 102.179688 147.261719 102.179688 147.0625 C 102.179688 146.859375 102.34375 146.695312 102.546875 146.695312 L 110.957031 146.695312 C 111.160156 146.695312 111.324219 146.859375 111.324219 147.0625 C 111.324219 147.261719 111.160156 147.425781 110.957031 147.425781 Z M 110.957031 147.425781 " fill-opacity="1" fill-rule="nonzero"/><path fill="#3d3936" d="M 182.015625 147.425781 L 119.140625 147.425781 C 118.9375 147.425781 118.773438 147.261719 118.773438 147.0625 C 118.773438 146.859375 118.9375 146.695312 119.140625 146.695312 L 182.015625 146.695312 C 182.21875 146.695312 182.382812 146.859375 182.382812 147.0625 C 182.382812 147.261719 182.21875 147.425781 182.015625 147.425781 Z M 182.015625 147.425781 " fill-opacity="1" fill-rule="nonzero"/><path fill="#3d3936" d="M 110.957031 154.992188 L 102.546875 154.992188 C 102.34375 154.992188 102.179688 154.828125 102.179688 154.625 C 102.179688 154.421875 102.34375 154.261719 102.546875 154.261719 L 110.957031 154.261719 C 111.160156 154.261719 111.324219 154.421875 111.324219 154.625 C 111.324219 154.828125 111.160156 154.992188 110.957031 154.992188 Z M 110.957031 154.992188 " fill-opacity="1" fill-rule="nonzero"/><path fill="#3d3936" d="M 182.015625 154.992188 L 119.140625 154.992188 C 118.9375 154.992188 118.773438 154.828125 118.773438 154.625 C 118.773438 154.421875 118.9375 154.261719 119.140625 154.261719 L 182.015625 154.261719 C 182.21875 154.261719 182.382812 154.421875 182.382812 154.625 C 182.382812 154.828125 182.21875 154.992188 182.015625 154.992188 Z M 182.015625 154.992188 " fill-opacity="1" fill-rule="nonzero"/><path fill="#3d3936" d="M 110.957031 162.554688 L 102.546875 162.554688 C 102.34375 162.554688 102.179688 162.390625 102.179688 162.191406 C 102.179688 161.988281 102.34375 161.824219 102.546875 161.824219 L 110.957031 161.824219 C 111.160156 161.824219 111.324219 161.988281 111.324219 162.191406 C 111.324219 162.390625 111.160156 162.554688 110.957031 162.554688 Z M 110.957031 162.554688 " fill-opacity="1" fill-rule="nonzero"/><path fill="#3d3936" d="M 182.015625 162.554688 L 160.382812 162.554688 C 160.179688 162.554688 160.015625 162.390625 160.015625 162.191406 C 160.015625 161.988281 160.179688 161.824219 160.382812 161.824219 L 182.015625 161.824219 C 182.21875 161.824219 182.382812 161.988281 182.382812 162.191406 C 182.382812 162.390625 182.21875 162.554688 182.015625 162.554688 Z M 182.015625 162.554688 " fill-opacity="1" fill-rule="nonzero"/><path fill="#88eaa3" d="M 155.75 183.90625 C 155.75 190.550781 150.351562 195.941406 143.699219 195.941406 C 137.050781 195.941406 131.660156 190.550781 131.660156 183.90625 C 131.660156 177.257812 137.050781 171.875 143.699219 171.875 C 150.351562 171.875 155.75 177.257812 155.75 183.90625 Z M 155.75 183.90625 " fill-opacity="1" fill-rule="nonzero"/><path fill="#ffffff" d="M 141.019531 186.863281 L 138.808594 183.464844 C 138.367188 182.789062 138.5625 181.882812 139.238281 181.445312 C 139.917969 181.003906 140.820312 181.195312 141.261719 181.875 L 142.652344 184.015625 L 147.714844 180.542969 C 148.378906 180.085938 149.292969 180.253906 149.75 180.917969 C 150.207031 181.582031 150.035156 182.492188 149.371094 182.949219 L 143.074219 187.273438 C 142.394531 187.738281 141.464844 187.554688 141.019531 186.863281 Z M 141.019531 186.863281 " fill-opacity="1" fill-rule="nonzero"/><path fill="#ffffff" d="M 283.984375 206.257812 L 283.984375 220.835938 C 283.984375 223.113281 282.136719 224.957031 279.859375 224.957031 L 200.683594 224.957031 C 198.40625 224.957031 196.558594 223.113281 196.558594 220.835938 L 196.558594 206.257812 C 196.558594 203.980469 198.40625 202.136719 200.683594 202.136719 L 279.859375 202.136719 C 282.136719 202.136719 283.984375 203.980469 283.984375 206.257812 Z M 283.984375 206.257812 " fill-opacity="1" fill-rule="nonzero"/><path fill="#3d3936" d="M 279.859375 225.320312 L 200.683594 225.320312 C 198.207031 225.320312 196.191406 223.308594 196.191406 220.835938 L 196.191406 206.257812 C 196.191406 203.78125 198.207031 201.769531 200.683594 201.769531 L 279.859375 201.769531 C 282.332031 201.769531 284.347656 203.78125 284.347656 206.257812 L 284.347656 220.835938 C 284.347656 223.308594 282.332031 225.320312 279.859375 225.320312 Z M 200.683594 202.5 C 198.609375 202.5 196.921875 204.1875 196.921875 206.257812 L 196.921875 220.835938 C 196.921875 222.90625 198.609375 224.589844 200.683594 224.589844 L 279.859375 224.589844 C 281.929688 224.589844 283.617188 222.90625 283.617188 220.835938 L 283.617188 206.257812 C 283.617188 204.1875 281.929688 202.5 279.859375 202.5 Z M 200.683594 202.5 " fill-opacity="1" fill-rule="nonzero"/><path fill="#52adff" d="M 213.703125 213.546875 C 213.703125 216.828125 211.042969 219.488281 207.757812 219.488281 C 204.472656 219.488281 201.8125 216.828125 201.8125 213.546875 C 201.8125 210.265625 204.472656 207.605469 207.757812 207.605469 C 211.042969 207.605469 213.703125 210.265625 213.703125 213.546875 Z M 213.703125 213.546875 " fill-opacity="1" fill-rule="nonzero"/><path fill="#ffffff" d="M 207.046875 215.0625 C 207.039062 215.0625 207.027344 215.0625 207.015625 215.058594 C 206.917969 215.050781 206.824219 215 206.761719 214.925781 L 205.578125 213.441406 C 205.449219 213.285156 205.476562 213.054688 205.632812 212.929688 C 205.792969 212.804688 206.019531 212.828125 206.148438 212.988281 L 207.09375 214.167969 L 209.410156 212.121094 C 209.5625 211.988281 209.792969 212.003906 209.925781 212.15625 C 210.0625 212.304688 210.046875 212.535156 209.894531 212.667969 L 207.289062 214.96875 C 207.222656 215.027344 207.136719 215.0625 207.046875 215.0625 Z M 207.046875 215.0625 " fill-opacity="1" fill-rule="nonzero"/><path fill="#3d3936" d="M 274.316406 211.449219 L 219.914062 211.449219 C 219.714844 211.449219 219.550781 211.285156 219.550781 211.082031 C 219.550781 210.882812 219.714844 210.71875 219.914062 210.71875 L 274.316406 210.71875 C 274.519531 210.71875 274.679688 210.882812 274.679688 211.082031 C 274.679688 211.285156 274.519531 211.449219 274.316406 211.449219 Z M 274.316406 211.449219 " fill-opacity="1" fill-rule="nonzero"/><path fill="#3d3936" d="M 254.167969 216.375 L 219.914062 216.375 C 219.714844 216.375 219.550781 216.210938 219.550781 216.007812 C 219.550781 215.804688 219.714844 215.644531 219.914062 215.644531 L 254.167969 215.644531 C 254.367188 215.644531 254.53125 215.804688 254.53125 216.007812 C 254.53125 216.210938 254.367188 216.375 254.167969 216.375 Z M 254.167969 216.375 " fill-opacity="1" fill-rule="nonzero"/><path fill="#a3a3f5" d="M 60.652344 96.570312 L 60.652344 116.957031 C 60.652344 119.539062 58.558594 121.628906 55.976562 121.628906 L 42.503906 121.628906 L 34.945312 127.222656 C 34.324219 127.683594 33.4375 127.238281 33.4375 126.460938 L 33.4375 121.628906 L 31.125 121.628906 C 28.542969 121.628906 26.449219 119.539062 26.449219 116.957031 L 26.449219 96.570312 C 26.449219 93.988281 28.542969 91.898438 31.125 91.898438 L 55.976562 91.898438 C 58.558594 91.898438 60.652344 93.988281 60.652344 96.570312 Z M 60.652344 96.570312 " fill-opacity="1" fill-rule="nonzero"/><path fill="#ffffff" d="M 43.816406 98.6875 C 45.882812 98.6875 47.320312 99.460938 48.132812 101.003906 C 48.390625 101.5625 48.519531 102.175781 48.519531 102.84375 C 48.519531 104.375 47.746094 105.574219 46.199219 106.4375 C 45.46875 106.851562 44.824219 107.3125 44.265625 107.816406 C 44.089844 108.054688 43.925781 108.367188 43.777344 108.757812 C 43.546875 109.050781 43.273438 109.195312 42.957031 109.195312 C 42.242188 109.195312 42.078125 108.320312 42.039062 108.246094 C 42.039062 107.761719 42.398438 107.128906 43.113281 106.347656 C 43.753906 105.773438 44.628906 105.164062 45.738281 104.519531 C 46.707031 103.878906 46.570312 103.011719 46.617188 102.78125 C 46.617188 100.324219 43.851562 100.621094 43.714844 100.585938 C 42.03125 100.585938 41 100.960938 40.617188 101.710938 C 40.332031 102.277344 39.894531 102.71875 39.257812 102.628906 C 38.464844 102.480469 38.585938 101.824219 38.542969 101.660156 C 38.570312 101.113281 38.976562 100.449219 39.757812 99.667969 C 40.558594 99.011719 41.910156 98.6875 43.816406 98.6875 Z M 44.226562 112.148438 L 44.277344 112.503906 C 44.277344 113.660156 42.949219 113.792969 42.878906 113.832031 C 41.9375 113.660156 41.464844 113.21875 41.464844 112.503906 L 41.464844 112.484375 C 41.464844 111.863281 41.835938 111.441406 42.570312 111.21875 C 42.644531 111.230469 43.625 110.824219 44.226562 112.148438 Z M 44.226562 112.148438 " fill-opacity="1" fill-rule="nonzero"/><path fill="#3d3936" d="M 302.128906 141.1875 C 302.054688 141 302.148438 140.789062 302.335938 140.714844 L 334.15625 128.101562 C 334.34375 128.027344 334.554688 128.117188 334.628906 128.304688 C 334.703125 128.492188 334.613281 128.707031 334.425781 128.78125 L 302.605469 141.390625 C 302.417969 141.464844 302.207031 141.375 302.128906 141.1875 Z M 302.128906 141.1875 " fill-opacity="1" fill-rule="nonzero"/><path fill="#3d3936" d="M 225.773438 152.390625 C 225.621094 152.390625 225.476562 152.296875 225.425781 152.144531 L 213.097656 115.675781 C 213.035156 115.484375 213.136719 115.277344 213.328125 115.214844 C 213.519531 115.148438 213.726562 115.25 213.792969 115.441406 L 226.117188 151.910156 C 226.183594 152.101562 226.078125 152.308594 225.890625 152.375 C 225.851562 152.386719 225.808594 152.390625 225.773438 152.390625 Z M 225.773438 152.390625 " fill-opacity="1" fill-rule="nonzero"/><path fill="#3d3936" d="M 216.964844 154.8125 C 216.820312 154.8125 216.6875 154.726562 216.628906 154.589844 L 201.238281 118.765625 C 201.15625 118.578125 201.242188 118.367188 201.429688 118.285156 C 201.613281 118.207031 201.828125 118.292969 201.910156 118.476562 L 217.175781 154.007812 L 228.636719 150.863281 C 228.828125 150.808594 229.03125 150.921875 229.085938 151.117188 C 229.140625 151.3125 229.027344 151.511719 228.832031 151.566406 L 217.0625 154.796875 C 217.03125 154.808594 216.996094 154.8125 216.964844 154.8125 Z M 216.964844 154.8125 " fill-opacity="1" fill-rule="nonzero"/><path fill="#3d3936" d="M 117.28125 339.054688 C 117.136719 338.914062 117.136719 338.679688 117.28125 338.539062 L 121.667969 334.15625 L 117.28125 329.777344 C 117.136719 329.636719 117.136719 329.40625 117.28125 329.261719 C 117.425781 329.117188 117.65625 329.117188 117.796875 329.261719 L 122.441406 333.898438 C 122.585938 334.042969 122.585938 334.273438 122.441406 334.414062 L 117.796875 339.054688 C 117.65625 339.199219 117.425781 339.199219 117.28125 339.054688 Z M 117.28125 339.054688 " fill-opacity="1" fill-rule="nonzero"/><path fill="#3d3936" d="M 45.300781 82.953125 C 45.097656 82.953125 44.933594 82.789062 44.933594 82.585938 L 44.933594 67.011719 C 44.933594 60.304688 50.394531 54.847656 57.109375 54.847656 L 178.574219 54.847656 C 178.773438 54.847656 178.9375 55.011719 178.9375 55.214844 C 178.9375 55.414062 178.773438 55.578125 178.574219 55.578125 L 57.109375 55.578125 C 50.800781 55.578125 45.664062 60.707031 45.664062 67.011719 L 45.664062 82.585938 C 45.664062 82.789062 45.503906 82.953125 45.300781 82.953125 Z M 45.300781 82.953125 " fill-opacity="1" fill-rule="nonzero"/><path fill="#3d3936" d="M 173.671875 60.109375 C 173.527344 59.96875 173.527344 59.738281 173.671875 59.59375 L 178.054688 55.210938 L 173.671875 50.832031 C 173.527344 50.691406 173.527344 50.460938 173.671875 50.316406 C 173.8125 50.175781 174.042969 50.175781 174.1875 50.316406 L 178.832031 54.953125 C 178.972656 55.097656 178.972656 55.328125 178.832031 55.472656 L 174.1875 60.109375 C 174.042969 60.253906 173.8125 60.253906 173.671875 60.109375 Z M 173.671875 60.109375 " fill-opacity="1" fill-rule="nonzero"/><path fill="#ffa18a" d="M 225.28125 240.511719 L 220.246094 226.582031 C 219.871094 225.46875 220.511719 224.261719 221.648438 223.949219 C 222.121094 223.8125 222.613281 223.859375 223.039062 224.050781 C 223.371094 224.199219 223.664062 224.4375 223.878906 224.75 L 223.511719 223.652344 C 223.34375 223.140625 223.378906 222.613281 223.582031 222.160156 C 223.824219 221.617188 224.296875 221.1875 224.914062 221.011719 C 225.792969 220.769531 226.710938 221.140625 227.191406 221.882812 L 226.902344 221.019531 C 226.730469 220.515625 226.773438 219.980469 226.972656 219.53125 C 227.214844 218.992188 227.6875 218.554688 228.304688 218.378906 C 229.332031 218.09375 230.410156 218.644531 230.78125 219.644531 L 231.464844 221.492188 C 231.261719 220.453125 231.890625 219.40625 232.9375 219.113281 C 233.414062 218.976562 233.902344 219.03125 234.320312 219.21875 C 234.8125 219.4375 235.21875 219.839844 235.414062 220.378906 L 238.527344 228.390625 L 241.730469 226.007812 C 242.175781 225.679688 242.746094 225.566406 243.28125 225.703125 C 244.492188 226.011719 245.042969 227.421875 244.355469 228.472656 L 240.785156 234.035156 Z M 225.28125 240.511719 " fill-opacity="1" fill-rule="nonzero"/><path fill="#3d3936" d="M 233.121094 225.964844 C 232.976562 225.964844 232.839844 225.878906 232.78125 225.734375 L 231.128906 221.628906 C 231.050781 221.441406 231.144531 221.226562 231.332031 221.152344 C 231.515625 221.078125 231.730469 221.167969 231.804688 221.355469 L 233.460938 225.460938 C 233.535156 225.648438 233.445312 225.863281 233.257812 225.9375 C 233.210938 225.953125 233.167969 225.964844 233.121094 225.964844 Z M 233.121094 225.964844 " fill-opacity="1" fill-rule="nonzero"/><path fill="#3d3936" d="M 228.996094 226.710938 C 228.851562 226.710938 228.714844 226.621094 228.660156 226.480469 L 227.105469 222.621094 C 227.027344 222.433594 227.121094 222.21875 227.308594 222.144531 C 227.492188 222.070312 227.707031 222.160156 227.78125 222.347656 L 229.335938 226.207031 C 229.414062 226.394531 229.320312 226.609375 229.132812 226.683594 C 229.089844 226.699219 229.042969 226.710938 228.996094 226.710938 Z M 228.996094 226.710938 " fill-opacity="1" fill-rule="nonzero"/><path fill="#3d3936" d="M 225.421875 228.78125 C 225.277344 228.78125 225.140625 228.695312 225.085938 228.554688 L 223.609375 224.890625 C 223.535156 224.707031 223.625 224.492188 223.8125 224.417969 C 224 224.34375 224.210938 224.429688 224.289062 224.621094 L 225.761719 228.28125 C 225.835938 228.46875 225.746094 228.679688 225.558594 228.757812 C 225.515625 228.773438 225.46875 228.78125 225.421875 228.78125 Z M 225.421875 228.78125 " fill-opacity="1" fill-rule="nonzero"/></svg>