<svg width="507" height="105" viewBox="0 0 507 105" fill="none" xmlns="http://www.w3.org/2000/svg">
<path d="M48.3838 45.0752V55.3584H14.9854V45.0752H48.3838ZM18.8965 19.0156V83H5.71289V19.0156H18.8965ZM57.7881 19.0156V83H44.6484V19.0156H57.7881ZM96.5918 71.6182V35.4512H109.248V83H97.3389L96.5918 71.6182ZM97.998 61.8623L101.733 61.7744C101.733 64.9385 101.367 67.8828 100.635 70.6074C99.9023 73.3027 98.8037 75.6465 97.3389 77.6387C95.874 79.6016 94.0283 81.1396 91.8018 82.2529C89.5752 83.3369 86.9531 83.8789 83.9355 83.8789C81.6211 83.8789 79.4824 83.5566 77.5195 82.9121C75.5859 82.2383 73.916 81.1982 72.5098 79.792C71.1328 78.3564 70.0488 76.5254 69.2578 74.2988C68.4961 72.043 68.1152 69.333 68.1152 66.1689V35.4512H80.7715V66.2568C80.7715 67.6631 80.9326 68.8496 81.2549 69.8164C81.6064 70.7832 82.0898 71.5742 82.7051 72.1895C83.3203 72.8047 84.0381 73.2441 84.8584 73.5078C85.708 73.7715 86.6455 73.9033 87.6709 73.9033C90.2783 73.9033 92.3291 73.376 93.8232 72.3213C95.3467 71.2666 96.416 69.8311 97.0312 68.0146C97.6758 66.1689 97.998 64.1182 97.998 61.8623ZM131.572 45.2949V83H118.872V35.4512H130.781L131.572 45.2949ZM129.814 57.5557H126.299C126.299 54.2451 126.694 51.1982 127.485 48.415C128.306 45.6025 129.492 43.1709 131.045 41.1201C132.627 39.04 134.575 37.4287 136.89 36.2861C139.204 35.1436 141.885 34.5723 144.932 34.5723C147.041 34.5723 148.975 34.8945 150.732 35.5391C152.49 36.1543 153.999 37.1357 155.259 38.4834C156.548 39.8018 157.544 41.5303 158.247 43.6689C158.95 45.7783 159.302 48.3125 159.302 51.2715V83H146.646V52.6777C146.646 50.5098 146.353 48.8398 145.767 47.668C145.181 46.4961 144.346 45.6758 143.262 45.207C142.207 44.7383 140.933 44.5039 139.438 44.5039C137.798 44.5039 136.362 44.8408 135.132 45.5146C133.931 46.1885 132.935 47.126 132.144 48.3271C131.353 49.499 130.767 50.876 130.386 52.458C130.005 54.04 129.814 55.7393 129.814 57.5557ZM158.115 56.1055L153.589 56.6768C153.589 53.5713 153.97 50.6855 154.731 48.0195C155.522 45.3535 156.68 43.0098 158.203 40.9883C159.756 38.9668 161.675 37.3994 163.96 36.2861C166.245 35.1436 168.882 34.5723 171.87 34.5723C174.155 34.5723 176.235 34.9092 178.11 35.583C179.985 36.2275 181.582 37.2676 182.9 38.7031C184.248 40.1094 185.273 41.9551 185.977 44.2402C186.709 46.5254 187.075 49.3232 187.075 52.6338V83H174.375V52.6338C174.375 50.4365 174.082 48.7666 173.496 47.624C172.939 46.4521 172.119 45.6465 171.035 45.207C169.98 44.7383 168.721 44.5039 167.256 44.5039C165.732 44.5039 164.399 44.8115 163.257 45.4268C162.114 46.0127 161.162 46.833 160.4 47.8877C159.639 48.9424 159.067 50.1729 158.687 51.5791C158.306 52.9561 158.115 54.4648 158.115 56.1055ZM222.539 72.2773V51.0957C222.539 49.5723 222.29 48.2686 221.792 47.1846C221.294 46.0713 220.518 45.207 219.463 44.5918C218.438 43.9766 217.104 43.6689 215.464 43.6689C214.058 43.6689 212.842 43.918 211.816 44.416C210.791 44.8848 210 45.5732 209.443 46.4814C208.887 47.3604 208.608 48.4004 208.608 49.6016H195.952C195.952 47.5801 196.421 45.6611 197.358 43.8447C198.296 42.0283 199.658 40.4316 201.445 39.0547C203.232 37.6484 205.356 36.5498 207.817 35.7588C210.308 34.9678 213.091 34.5723 216.167 34.5723C219.858 34.5723 223.14 35.1875 226.011 36.418C228.882 37.6484 231.138 39.4941 232.778 41.9551C234.448 44.416 235.283 47.4922 235.283 51.1836V71.5303C235.283 74.1377 235.444 76.2764 235.767 77.9463C236.089 79.5869 236.558 81.0225 237.173 82.2529V83H224.385C223.77 81.7109 223.301 80.0996 222.979 78.166C222.686 76.2031 222.539 74.2402 222.539 72.2773ZM224.209 54.04L224.297 61.2031H217.222C215.552 61.2031 214.102 61.3936 212.871 61.7744C211.641 62.1553 210.63 62.6973 209.839 63.4004C209.048 64.0742 208.462 64.8652 208.081 65.7734C207.729 66.6816 207.554 67.6777 207.554 68.7617C207.554 69.8457 207.803 70.8271 208.301 71.7061C208.799 72.5557 209.517 73.2295 210.454 73.7275C211.392 74.1963 212.49 74.4307 213.75 74.4307C215.654 74.4307 217.31 74.0498 218.716 73.2881C220.122 72.5264 221.206 71.5889 221.968 70.4756C222.759 69.3623 223.169 68.3076 223.198 67.3115L226.538 72.6729C226.069 73.874 225.425 75.1191 224.604 76.4082C223.813 77.6973 222.803 78.9131 221.572 80.0557C220.342 81.1689 218.862 82.0918 217.134 82.8242C215.405 83.5273 213.354 83.8789 210.981 83.8789C207.964 83.8789 205.225 83.2783 202.764 82.0771C200.332 80.8467 198.398 79.1621 196.963 77.0234C195.557 74.8555 194.854 72.3945 194.854 69.6406C194.854 67.1504 195.322 64.9385 196.26 63.0049C197.197 61.0713 198.574 59.4453 200.391 58.127C202.236 56.7793 204.536 55.7686 207.29 55.0947C210.044 54.3916 213.237 54.04 216.87 54.04H224.209ZM257.432 45.6025V83H244.775V35.4512H256.641L257.432 45.6025ZM255.586 57.5557H252.158C252.158 54.04 252.612 50.876 253.521 48.0635C254.429 45.2217 255.703 42.8047 257.344 40.8125C258.984 38.791 260.933 37.2529 263.188 36.1982C265.474 35.1143 268.022 34.5723 270.835 34.5723C273.062 34.5723 275.098 34.8945 276.943 35.5391C278.789 36.1836 280.371 37.209 281.689 38.6152C283.037 40.0215 284.062 41.8818 284.766 44.1963C285.498 46.5107 285.864 49.3379 285.864 52.6777V83H273.12V52.6338C273.12 50.5244 272.827 48.8838 272.241 47.7119C271.655 46.54 270.791 45.7197 269.648 45.251C268.535 44.7529 267.158 44.5039 265.518 44.5039C263.818 44.5039 262.339 44.8408 261.079 45.5146C259.849 46.1885 258.823 47.126 258.003 48.3271C257.212 49.499 256.611 50.876 256.201 52.458C255.791 54.04 255.586 55.7393 255.586 57.5557ZM361.626 72.7168V83H327.568V72.7168H361.626ZM331.875 19.0156V83H318.691V19.0156H331.875ZM357.188 45.0752V55.0947H327.568V45.0752H357.188ZM361.582 19.0156V29.3428H327.568V19.0156H361.582ZM394.189 72.2773V51.0957C394.189 49.5723 393.94 48.2686 393.442 47.1846C392.944 46.0713 392.168 45.207 391.113 44.5918C390.088 43.9766 388.755 43.6689 387.114 43.6689C385.708 43.6689 384.492 43.918 383.467 44.416C382.441 44.8848 381.65 45.5732 381.094 46.4814C380.537 47.3604 380.259 48.4004 380.259 49.6016H367.603C367.603 47.5801 368.071 45.6611 369.009 43.8447C369.946 42.0283 371.309 40.4316 373.096 39.0547C374.883 37.6484 377.007 36.5498 379.468 35.7588C381.958 34.9678 384.741 34.5723 387.817 34.5723C391.509 34.5723 394.79 35.1875 397.661 36.418C400.532 37.6484 402.788 39.4941 404.429 41.9551C406.099 44.416 406.934 47.4922 406.934 51.1836V71.5303C406.934 74.1377 407.095 76.2764 407.417 77.9463C407.739 79.5869 408.208 81.0225 408.823 82.2529V83H396.035C395.42 81.7109 394.951 80.0996 394.629 78.166C394.336 76.2031 394.189 74.2402 394.189 72.2773ZM395.859 54.04L395.947 61.2031H388.872C387.202 61.2031 385.752 61.3936 384.521 61.7744C383.291 62.1553 382.28 62.6973 381.489 63.4004C380.698 64.0742 380.112 64.8652 379.731 65.7734C379.38 66.6816 379.204 67.6777 379.204 68.7617C379.204 69.8457 379.453 70.8271 379.951 71.7061C380.449 72.5557 381.167 73.2295 382.104 73.7275C383.042 74.1963 384.141 74.4307 385.4 74.4307C387.305 74.4307 388.96 74.0498 390.366 73.2881C391.772 72.5264 392.856 71.5889 393.618 70.4756C394.409 69.3623 394.819 68.3076 394.849 67.3115L398.188 72.6729C397.72 73.874 397.075 75.1191 396.255 76.4082C395.464 77.6973 394.453 78.9131 393.223 80.0557C391.992 81.1689 390.513 82.0918 388.784 82.8242C387.056 83.5273 385.005 83.8789 382.632 83.8789C379.614 83.8789 376.875 83.2783 374.414 82.0771C371.982 80.8467 370.049 79.1621 368.613 77.0234C367.207 74.8555 366.504 72.3945 366.504 69.6406C366.504 67.1504 366.973 64.9385 367.91 63.0049C368.848 61.0713 370.225 59.4453 372.041 58.127C373.887 56.7793 376.187 55.7686 378.94 55.0947C381.694 54.3916 384.888 54.04 388.521 54.04H395.859ZM442.397 69.8604C442.397 68.9521 442.134 68.1318 441.606 67.3994C441.079 66.667 440.098 65.9932 438.662 65.3779C437.256 64.7334 435.22 64.1475 432.554 63.6201C430.151 63.0928 427.91 62.4336 425.83 61.6426C423.779 60.8223 421.992 59.8408 420.469 58.6982C418.975 57.5557 417.803 56.208 416.953 54.6553C416.104 53.0732 415.679 51.2715 415.679 49.25C415.679 47.2578 416.104 45.3828 416.953 43.625C417.832 41.8672 419.077 40.3145 420.688 38.9668C422.329 37.5898 424.321 36.5205 426.665 35.7588C429.038 34.9678 431.704 34.5723 434.663 34.5723C438.794 34.5723 442.339 35.2314 445.298 36.5498C448.286 37.8682 450.571 39.6846 452.153 41.999C453.765 44.2842 454.57 46.8916 454.57 49.8213H441.914C441.914 48.5908 441.65 47.4922 441.123 46.5254C440.625 45.5293 439.834 44.7529 438.75 44.1963C437.695 43.6104 436.318 43.3174 434.619 43.3174C433.213 43.3174 431.997 43.5664 430.972 44.0645C429.946 44.5332 429.155 45.1777 428.599 45.998C428.071 46.7891 427.808 47.668 427.808 48.6348C427.808 49.3672 427.954 50.0264 428.247 50.6123C428.569 51.1689 429.082 51.6816 429.785 52.1504C430.488 52.6191 431.396 53.0586 432.51 53.4688C433.652 53.8496 435.059 54.2012 436.729 54.5234C440.156 55.2266 443.218 56.1494 445.913 57.292C448.608 58.4053 450.747 59.9287 452.329 61.8623C453.911 63.7666 454.702 66.2715 454.702 69.377C454.702 71.4863 454.233 73.4199 453.296 75.1777C452.358 76.9355 451.011 78.4736 449.253 79.792C447.495 81.0811 445.386 82.0918 442.925 82.8242C440.493 83.5273 437.754 83.8789 434.707 83.8789C430.283 83.8789 426.533 83.0879 423.457 81.5059C420.41 79.9238 418.096 77.917 416.514 75.4854C414.961 73.0244 414.185 70.5049 414.185 67.9268H426.182C426.24 69.6553 426.68 71.0469 427.5 72.1016C428.35 73.1562 429.419 73.918 430.708 74.3867C432.026 74.8555 433.447 75.0898 434.971 75.0898C436.611 75.0898 437.974 74.8701 439.058 74.4307C440.142 73.9619 440.962 73.3467 441.519 72.585C442.104 71.7939 442.397 70.8857 442.397 69.8604ZM484.805 83.8789C481.113 83.8789 477.803 83.293 474.873 82.1211C471.943 80.9199 469.453 79.2646 467.402 77.1553C465.381 75.0459 463.828 72.5996 462.744 69.8164C461.66 67.0039 461.118 64.0156 461.118 60.8516V59.0938C461.118 55.4902 461.631 52.1943 462.656 49.2061C463.682 46.2178 465.146 43.625 467.051 41.4277C468.984 39.2305 471.328 37.5459 474.082 36.374C476.836 35.1729 479.941 34.5723 483.398 34.5723C486.768 34.5723 489.756 35.1289 492.363 36.2422C494.971 37.3555 497.153 38.9375 498.911 40.9883C500.698 43.0391 502.046 45.5 502.954 48.3711C503.862 51.2129 504.316 54.377 504.316 57.8633V63.1367H466.523V54.6992H491.88V53.7324C491.88 51.9746 491.558 50.4072 490.913 49.0303C490.298 47.624 489.36 46.5107 488.101 45.6904C486.841 44.8701 485.229 44.46 483.267 44.46C481.597 44.46 480.161 44.8262 478.96 45.5586C477.759 46.291 476.777 47.3164 476.016 48.6348C475.283 49.9531 474.727 51.5059 474.346 53.293C473.994 55.0508 473.818 56.9844 473.818 59.0938V60.8516C473.818 62.7559 474.082 64.5137 474.609 66.125C475.166 67.7363 475.942 69.1279 476.938 70.2998C477.964 71.4717 479.194 72.3799 480.63 73.0244C482.095 73.6689 483.75 73.9912 485.596 73.9912C487.881 73.9912 490.005 73.5518 491.968 72.6729C493.96 71.7646 495.674 70.4023 497.109 68.5859L503.262 75.2656C502.266 76.7012 500.903 78.0781 499.175 79.3965C497.476 80.7148 495.425 81.7988 493.022 82.6484C490.62 83.4688 487.881 83.8789 484.805 83.8789Z" fill="white"/>

<path d="M329.388 44.8215C322.586 52.7097 311.992 53.3243 301.218 53.0537C303.072 63.747 303.998 74.2655 297.219 82.1275C289.608 90.9543 275.921 91.6716 266.708 83.7275C257.495 75.7834 256.192 62.1399 263.803 53.3131C270.607 45.4223 281.466 44.7392 291.847 44.9735C290.093 34.7478 289.17 23.8953 295.972 16.0071C303.583 7.17978 317.27 6.46316 326.482 14.4073C335.695 22.3514 336.996 35.9979 329.388 44.8215ZM299.8 45.2282C309.6 45.5156 318.433 45.2407 323.312 39.5824C328.176 33.941 327.367 25.2423 321.504 20.1865C315.644 15.1335 306.918 15.6102 302.054 21.2516C297.099 26.9911 298.102 35.7419 299.8 45.2282ZM269.882 58.555C265.018 64.196 265.829 72.8976 271.689 77.9508C277.552 83.0066 286.276 82.5265 291.14 76.8856C296.044 71.1984 294.986 62.3694 293.263 52.7965C283.631 52.5231 274.831 52.816 269.882 58.555Z" fill="#99DDFF"/>
</svg>
