<svg width="24" height="24" viewBox="0 0 34 42" fill="none" xmlns="http://www.w3.org/2000/svg">
<path d="M8.66683 35.5833H25.3335V31.4166H8.66683V35.5833ZM8.66683 29.3333H25.3335V25.1666H8.66683V29.3333ZM17.0002 21.625C19.2918 19.5416 21.2536 17.6927 22.8856 16.0781C24.5175 14.4635 25.3335 12.7708 25.3335 11C25.3335 9.74996 24.8821 8.67357 23.9793 7.77079C23.0766 6.86802 22.0002 6.41663 20.7502 6.41663C20.021 6.41663 19.3179 6.5642 18.6408 6.85934C17.9637 7.15447 17.4168 7.56246 17.0002 8.08329C16.5835 7.56246 16.0366 7.15447 15.3595 6.85934C14.6825 6.5642 13.9793 6.41663 13.2502 6.41663C12.0002 6.41663 10.9238 6.86802 10.021 7.77079C9.11822 8.67357 8.66683 9.74996 8.66683 11C8.66683 12.7708 9.45676 14.4375 11.0366 16C12.6165 17.5625 14.6043 19.4375 17.0002 21.625ZM29.5002 41.8333H4.50016C3.35433 41.8333 2.37343 41.4253 1.55745 40.6093C0.741482 39.7934 0.333496 38.8125 0.333496 37.6666V4.33329C0.333496 3.18746 0.741482 2.20656 1.55745 1.39058C2.37343 0.574612 3.35433 0.166626 4.50016 0.166626H29.5002C30.646 0.166626 31.6269 0.574612 32.4429 1.39058C33.2588 2.20656 33.6668 3.18746 33.6668 4.33329V37.6666C33.6668 38.8125 33.2588 39.7934 32.4429 40.6093C31.6269 41.4253 30.646 41.8333 29.5002 41.8333ZM4.50016 37.6666H29.5002V4.33329H4.50016V37.6666Z" fill="#757575"/>
</svg>
