<svg width="43" height="47" viewBox="0 0 43 47" fill="none" xmlns="http://www.w3.org/2000/svg">
<path d="M4.91667 42.2502C3.77083 42.2502 2.78993 41.8422 1.97396 41.0262C1.15799 40.2102 0.75 39.2293 0.75 38.0835V8.91683C0.75 7.771 1.15799 6.79009 1.97396 5.97412C2.78993 5.15815 3.77083 4.75016 4.91667 4.75016H13.6667C14.1181 3.50016 14.8733 2.49322 15.9323 1.72933C16.9913 0.965441 18.1806 0.583496 19.5 0.583496C20.8194 0.583496 22.0087 0.965441 23.0677 1.72933C24.1267 2.49322 24.8819 3.50016 25.3333 4.75016H34.0833C35.2292 4.75016 36.2101 5.15815 37.026 5.97412C37.842 6.79009 38.25 7.771 38.25 8.91683V22.8752C37.5903 22.5627 36.9132 22.2936 36.2188 22.0679C35.5243 21.8422 34.8125 21.6772 34.0833 21.5731V8.91683H4.91667V38.0835H17.5208C17.625 38.8474 17.7899 39.5766 18.0156 40.271C18.2413 40.9654 18.5104 41.6252 18.8229 42.2502H4.91667ZM4.91667 38.0835V8.91683V21.5731V21.4168V38.0835ZM9.08333 33.9168H17.5729C17.6771 33.1877 17.842 32.4759 18.0677 31.7814C18.2934 31.087 18.5451 30.4099 18.8229 29.7502H9.08333V33.9168ZM9.08333 25.5835H21.7917C22.9028 24.5418 24.1441 23.6738 25.5156 22.9793C26.8872 22.2849 28.3542 21.8161 29.9167 21.5731V21.4168H9.08333V25.5835ZM9.08333 17.2502H29.9167V13.0835H9.08333V17.2502ZM19.5 7.35433C19.9514 7.35433 20.3247 7.20676 20.6198 6.91162C20.9149 6.61648 21.0625 6.24322 21.0625 5.79183C21.0625 5.34044 20.9149 4.96718 20.6198 4.67204C20.3247 4.3769 19.9514 4.22933 19.5 4.22933C19.0486 4.22933 18.6753 4.3769 18.3802 4.67204C18.0851 4.96718 17.9375 5.34044 17.9375 5.79183C17.9375 6.24322 18.0851 6.61648 18.3802 6.91162C18.6753 7.20676 19.0486 7.35433 19.5 7.35433ZM32 46.4168C29.1181 46.4168 26.6615 45.4012 24.6302 43.37C22.599 41.3387 21.5833 38.8821 21.5833 36.0002C21.5833 33.1182 22.599 30.6616 24.6302 28.6304C26.6615 26.5991 29.1181 25.5835 32 25.5835C34.8819 25.5835 37.3385 26.5991 39.3698 28.6304C41.401 30.6616 42.4167 33.1182 42.4167 36.0002C42.4167 38.8821 41.401 41.3387 39.3698 43.37C37.3385 45.4012 34.8819 46.4168 32 46.4168ZM30.9583 42.2502H33.0417V37.0418H38.25V34.9585H33.0417V29.7502H30.9583V34.9585H25.75V37.0418H30.9583V42.2502Z" fill="#004466"/>
</svg>
