<svg width="42" height="43" viewBox="0 0 42 43" fill="none" xmlns="http://www.w3.org/2000/svg">
<path d="M27.75 37.2083L33.5833 31.375V36.1667H35.6667V27.8333H27.3333V29.9167H32.125L26.2917 35.75L27.75 37.2083ZM4.41667 38.25C3.27083 38.25 2.28993 37.842 1.47396 37.026C0.657986 36.2101 0.25 35.2292 0.25 34.0833V4.91667C0.25 3.77083 0.657986 2.78993 1.47396 1.97396C2.28993 1.15799 3.27083 0.75 4.41667 0.75H33.5833C34.7292 0.75 35.7101 1.15799 36.526 1.97396C37.342 2.78993 37.75 3.77083 37.75 4.91667V18.875C37.0903 18.5625 36.4132 18.2934 35.7188 18.0677C35.0243 17.842 34.3125 17.6771 33.5833 17.5729V4.91667H4.41667V34.0833H17.0208C17.125 34.8472 17.2899 35.5764 17.5156 36.2708C17.7413 36.9653 18.0104 37.625 18.3229 38.25H4.41667ZM4.41667 34.0833V4.91667V17.5729V17.4167V34.0833ZM8.58333 29.9167H17.0729C17.1771 29.1875 17.342 28.4757 17.5677 27.7813C17.7934 27.0868 18.0451 26.4097 18.3229 25.75H8.58333V29.9167ZM8.58333 21.5833H21.2917C22.4028 20.5417 23.6441 19.6736 25.0156 18.9792C26.3872 18.2847 27.8542 17.816 29.4167 17.5729V17.4167H8.58333V21.5833ZM8.58333 13.25H29.4167V9.08333H8.58333V13.25ZM31.5 42.4167C28.6181 42.4167 26.1615 41.401 24.1302 39.3698C22.099 37.3385 21.0833 34.8819 21.0833 32C21.0833 29.1181 22.099 26.6615 24.1302 24.6302C26.1615 22.599 28.6181 21.5833 31.5 21.5833C34.3819 21.5833 36.8385 22.599 38.8698 24.6302C40.901 26.6615 41.9167 29.1181 41.9167 32C41.9167 34.8819 40.901 37.3385 38.8698 39.3698C36.8385 41.401 34.3819 42.4167 31.5 42.4167Z" fill="#004466"/>
</svg>
