<svg width="21" height="20" viewBox="0 0 21 20" fill="none" xmlns="http://www.w3.org/2000/svg">
<mask id="mask0_24_522" style="mask-type:alpha" maskUnits="userSpaceOnUse" x="0" y="0" width="21" height="20">
<rect x="0.5" width="20" height="20" fill="#D9D9D9"/>
</mask>
<g mask="url(#mask0_24_522)">
<path d="M15.4999 13.125C15.4999 14.5694 14.993 15.7986 13.9791 16.8125C12.9652 17.8263 11.736 18.3333 10.2916 18.3333C8.84714 18.3333 7.61797 17.8263 6.60409 16.8125C5.5902 15.7986 5.08325 14.5694 5.08325 13.125V5.41663C5.08325 4.37496 5.44784 3.48954 6.177 2.76038C6.90617 2.03121 7.79159 1.66663 8.83325 1.66663C9.87492 1.66663 10.7603 2.03121 11.4895 2.76038C12.2187 3.48954 12.5833 4.37496 12.5833 5.41663V12.7083C12.5833 13.3472 12.361 13.8888 11.9166 14.3333C11.4721 14.7777 10.9305 15 10.2916 15C9.6527 15 9.11103 14.7777 8.66659 14.3333C8.22214 13.8888 7.99992 13.3472 7.99992 12.7083V4.99996H9.66659V12.7083C9.66659 12.8888 9.72561 13.0382 9.84367 13.1562C9.96172 13.2743 10.111 13.3333 10.2916 13.3333C10.4721 13.3333 10.6214 13.2743 10.7395 13.1562C10.8576 13.0382 10.9166 12.8888 10.9166 12.7083V5.41663C10.9027 4.83329 10.6978 4.34024 10.302 3.93746C9.90617 3.53468 9.41659 3.33329 8.83325 3.33329C8.24992 3.33329 7.75686 3.53468 7.35409 3.93746C6.95131 4.34024 6.74992 4.83329 6.74992 5.41663V13.125C6.73603 14.1111 7.07631 14.9479 7.77075 15.6354C8.4652 16.3229 9.30547 16.6666 10.2916 16.6666C11.2638 16.6666 12.0902 16.3229 12.7708 15.6354C13.4513 14.9479 13.8055 14.1111 13.8333 13.125V4.99996H15.4999V13.125Z" fill="white"/>
</g>
</svg>
