<svg width="42" height="43" viewBox="0 0 42 43" fill="none" xmlns="http://www.w3.org/2000/svg">
<path d="M26.7917 40.0106L17.9375 31.1564L20.8542 28.2397L26.7917 34.1772L38.5625 22.4064L41.4792 25.3231L26.7917 40.0106ZM38.25 19.3335H34.0833V8.91683H29.9167V15.1668H9.08333V8.91683H4.91667V38.0835H17.4167V42.2502H4.91667C3.77083 42.2502 2.78993 41.8422 1.97396 41.0262C1.15799 40.2102 0.75 39.2293 0.75 38.0835V8.91683C0.75 7.771 1.15799 6.79009 1.97396 5.97412C2.78993 5.15815 3.77083 4.75016 4.91667 4.75016H13.6146C13.9965 3.53489 14.7431 2.53662 15.8542 1.75537C16.9653 0.974121 18.1806 0.583496 19.5 0.583496C20.8889 0.583496 22.1302 0.974121 23.224 1.75537C24.3177 2.53662 25.0556 3.53489 25.4375 4.75016H34.0833C35.2292 4.75016 36.2101 5.15815 37.026 5.97412C37.842 6.79009 38.25 7.771 38.25 8.91683V19.3335ZM19.5 8.91683C20.0903 8.91683 20.5851 8.71718 20.9844 8.31787C21.3837 7.91857 21.5833 7.42377 21.5833 6.8335C21.5833 6.24322 21.3837 5.74843 20.9844 5.34912C20.5851 4.94982 20.0903 4.75016 19.5 4.75016C18.9097 4.75016 18.4149 4.94982 18.0156 5.34912C17.6163 5.74843 17.4167 6.24322 17.4167 6.8335C17.4167 7.42377 17.6163 7.91857 18.0156 8.31787C18.4149 8.71718 18.9097 8.91683 19.5 8.91683Z" fill="#004466"/>
</svg>
