<svg width="30" height="30" viewBox="0 0 30 30" fill="none" xmlns="http://www.w3.org/2000/svg">
<mask id="mask0_24_536" style="mask-type:alpha" maskUnits="userSpaceOnUse" x="0" y="0" width="30" height="30">
<rect width="30" height="30" fill="#D9D9D9"/>
</mask>
<g mask="url(#mask0_24_536)">
<path d="M15 21.25C15.3542 21.25 15.651 21.1302 15.8906 20.8906C16.1302 20.651 16.25 20.3542 16.25 20C16.25 19.6458 16.1302 19.349 15.8906 19.1094C15.651 18.8698 15.3542 18.75 15 18.75C14.6458 18.75 14.349 18.8698 14.1094 19.1094C13.8698 19.349 13.75 19.6458 13.75 20C13.75 20.3542 13.8698 20.651 14.1094 20.8906C14.349 21.1302 14.6458 21.25 15 21.25ZM13.75 16.25H16.25V8.75H13.75V16.25ZM6.25 26.25C5.5625 26.25 4.97396 26.0052 4.48438 25.5156C3.99479 25.026 3.75 24.4375 3.75 23.75V6.25C3.75 5.5625 3.99479 4.97396 4.48438 4.48438C4.97396 3.99479 5.5625 3.75 6.25 3.75H11.5C11.7708 3 12.224 2.39583 12.8594 1.9375C13.4948 1.47917 14.2083 1.25 15 1.25C15.7917 1.25 16.5052 1.47917 17.1406 1.9375C17.776 2.39583 18.2292 3 18.5 3.75H23.75C24.4375 3.75 25.026 3.99479 25.5156 4.48438C26.0052 4.97396 26.25 5.5625 26.25 6.25V23.75C26.25 24.4375 26.0052 25.026 25.5156 25.5156C25.026 26.0052 24.4375 26.25 23.75 26.25H6.25ZM6.25 23.75H23.75V6.25H6.25V23.75ZM15 5.3125C15.2708 5.3125 15.4948 5.22396 15.6719 5.04688C15.849 4.86979 15.9375 4.64583 15.9375 4.375C15.9375 4.10417 15.849 3.88021 15.6719 3.70312C15.4948 3.52604 15.2708 3.4375 15 3.4375C14.7292 3.4375 14.5052 3.52604 14.3281 3.70312C14.151 3.88021 14.0625 4.10417 14.0625 4.375C14.0625 4.64583 14.151 4.86979 14.3281 5.04688C14.5052 5.22396 14.7292 5.3125 15 5.3125Z" fill="#D73636"/>
</g>
</svg>
