<svg width="71" height="71" viewBox="0 0 71 71" fill="none" xmlns="http://www.w3.org/2000/svg">
<g clip-path="url(#clip0_57_1262)">
<path d="M35.5 49.5C42.01 49.5 47.435 45.02 49.01 39H21.99C23.565 45.02 28.99 49.5 35.5 49.5Z" fill="#002233"/>
<path d="M35.465 10.9995C21.955 10.9995 11 21.9895 11 35.4995C11 49.0095 21.955 59.9995 35.465 59.9995C49.01 59.9995 60 49.0095 60 35.4995C60 21.9895 49.01 10.9995 35.465 10.9995ZM35.465 56.4995C23.915 56.4995 14.5 47.0845 14.5 35.4995C14.5 23.9145 23.915 14.4995 35.465 14.4995C47.085 14.4995 56.5 23.9145 56.5 35.4995C56.5 47.0845 47.085 56.4995 35.465 56.4995Z" fill="#002233"/>
<path d="M46 32.0005C47.933 32.0005 49.5 30.4335 49.5 28.5005C49.5 26.5675 47.933 25.0005 46 25.0005C44.067 25.0005 42.5 26.5675 42.5 28.5005C42.5 30.4335 44.067 32.0005 46 32.0005Z" fill="#002233"/>
<path d="M25 32.0005C26.933 32.0005 28.5 30.4335 28.5 28.5005C28.5 26.5675 26.933 25.0005 25 25.0005C23.067 25.0005 21.5 26.5675 21.5 28.5005C21.5 30.4335 23.067 32.0005 25 32.0005Z" fill="#002233"/>
</g>
<defs>
<clipPath id="clip0_57_1262">
<rect x="0.5" y="0.5" width="70" height="70" rx="10" fill="white"/>
</clipPath>
</defs>
</svg>
