<svg width="50" height="50" viewBox="0 0 50 50" fill="none" xmlns="http://www.w3.org/2000/svg">
<mask id="mask0_26_643" style="mask-type:alpha" maskUnits="userSpaceOnUse" x="0" y="0" width="50" height="50">
<rect width="50" height="50" fill="#D9D9D9"/>
</mask>
<g mask="url(#mask0_26_643)">
<path d="M8.33333 43.75C7.1875 43.75 6.20659 43.342 5.39062 42.526C4.57465 41.7101 4.16666 40.7292 4.16666 39.5833V16.6667C4.16666 15.5208 4.57465 14.5399 5.39062 13.724C6.20659 12.908 7.1875 12.5 8.33333 12.5H16.6667V8.33334C16.6667 7.18751 17.0747 6.2066 17.8906 5.39063C18.7066 4.57466 19.6875 4.16667 20.8333 4.16667H29.1667C30.3125 4.16667 31.2934 4.57466 32.1094 5.39063C32.9253 6.2066 33.3333 7.18751 33.3333 8.33334V12.5H41.6667C42.8125 12.5 43.7934 12.908 44.6094 13.724C45.4254 14.5399 45.8333 15.5208 45.8333 16.6667V39.5833C45.8333 40.7292 45.4254 41.7101 44.6094 42.526C43.7934 43.342 42.8125 43.75 41.6667 43.75H8.33333ZM8.33333 39.5833H41.6667V16.6667H8.33333V39.5833ZM20.8333 12.5H29.1667V8.33334H20.8333V12.5Z" fill="#1C1B1F"/>
</g>
</svg>
